<?xml version="1.0" standalone="no"?>
<!DOCTYPE svg PUBLIC "-//W3C//DTD SVG 20010904//EN"
 "http://www.w3.org/TR/2001/REC-SVG-20010904/DTD/svg10.dtd">
<svg version="1.0" xmlns="http://www.w3.org/2000/svg"
 width="1456.000000pt" height="1456.000000pt" viewBox="0 0 1456.000000 1456.000000"
 preserveAspectRatio="xMidYMid meet">
<metadata>
Created by potrace 1.11, written by Peter Selinger 2001-2013
</metadata>
<g transform="translate(0.000000,1456.000000) scale(0.100000,-0.100000)"
fill="#000000" stroke="none">
<path d="M7110 14549 c-19 -5 -48 -11 -65 -14 -16 -3 -62 -12 -102 -20 -39 -8
-89 -17 -110 -21 -21 -3 -47 -8 -58 -11 -25 -8 -30 -9 -80 -17 -54 -8 -83 -14
-103 -20 -9 -3 -32 -8 -50 -11 -18 -3 -65 -12 -105 -21 -100 -21 -138 -27
-164 -28 -13 -1 -23 -5 -23 -10 0 -5 -3 -7 -6 -4 -3 4 -20 2 -37 -3 -18 -5
-48 -11 -67 -14 -19 -3 -46 -7 -60 -10 -26 -6 -57 -12 -100 -20 -14 -3 -36 -7
-50 -10 -14 -4 -34 -7 -45 -9 -11 -2 -33 -6 -50 -10 -16 -3 -40 -8 -53 -11
-13 -2 -31 -6 -40 -9 -9 -3 -35 -8 -57 -11 -73 -12 -83 -14 -155 -30 -14 -3
-36 -8 -50 -10 -24 -4 -99 -19 -150 -30 -14 -3 -36 -7 -50 -10 -14 -2 -50 -9
-80 -15 -30 -7 -68 -14 -85 -16 -16 -3 -37 -7 -45 -10 -8 -3 -32 -8 -53 -11
-45 -6 -72 -11 -72 -13 0 -3 -77 -18 -135 -26 -25 -3 -53 -10 -62 -15 -10 -6
-18 -8 -18 -5 0 2 -17 0 -37 -5 -21 -4 -54 -11 -73 -14 -19 -4 -44 -8 -55 -10
-11 -2 -42 -9 -70 -15 -27 -6 -66 -13 -85 -16 -19 -2 -43 -7 -52 -10 -17 -5
-42 -10 -93 -20 -16 -3 -48 -10 -70 -15 -22 -6 -57 -11 -77 -12 -21 -1 -38 -5
-38 -9 0 -5 -3 -7 -7 -6 -7 2 -97 -13 -158 -26 -64 -14 -325 -66 -353 -71 -18
-3 -65 -12 -105 -21 -71 -15 -130 -25 -154 -27 -7 0 -13 -3 -13 -6 0 -3 -10
-7 -22 -8 -13 -1 -34 -4 -48 -7 -14 -2 -43 -7 -65 -11 -22 -3 -49 -9 -60 -12
-11 -3 -29 -7 -40 -9 -11 -1 -54 -9 -95 -18 -41 -8 -86 -17 -100 -20 -14 -3
-50 -10 -80 -16 -30 -6 -67 -13 -82 -15 -15 -2 -32 -6 -37 -9 -5 -3 -26 -8
-47 -11 -22 -2 -51 -7 -67 -11 l-27 -6 0 -1089 0 -1089 28 4 c15 3 47 7 72 10
25 3 63 8 85 12 22 3 58 8 80 9 22 2 40 4 40 5 0 1 14 4 30 5 17 2 53 6 80 10
28 3 66 8 85 10 19 2 55 7 80 11 72 10 82 11 150 19 36 4 68 9 71 10 3 2 26 5
52 6 26 2 47 5 47 8 0 3 15 7 33 8 82 3 177 12 184 16 7 4 113 19 225 32 75 9
124 16 148 20 14 3 52 7 85 11 33 3 71 8 85 10 14 3 41 7 60 9 121 14 142 17
235 30 22 3 57 7 77 9 21 3 50 7 65 10 15 3 53 8 83 11 30 4 66 8 80 10 14 2
48 6 75 10 28 3 61 7 75 10 14 3 48 7 75 10 28 2 61 7 75 10 14 3 59 8 100 11
41 3 79 9 84 11 5 3 27 7 50 9 22 2 57 5 76 8 19 3 58 7 85 11 28 3 61 8 75
10 14 2 45 6 70 10 25 3 77 10 115 15 39 5 93 12 120 15 28 3 62 8 77 11 15 3
48 7 75 9 26 2 48 5 48 5 0 1 11 3 25 5 77 9 120 15 165 21 28 4 60 7 73 7 12
1 22 4 22 7 0 3 12 5 26 5 15 -1 47 2 73 6 25 4 71 10 101 13 73 9 121 16 145
20 11 2 47 7 80 10 33 4 71 9 85 11 14 2 48 7 75 10 74 9 116 15 160 21 75 10
152 5 325 -21 14 -2 50 -7 80 -10 30 -4 62 -9 70 -10 8 -2 42 -6 75 -10 33 -3
76 -9 95 -11 19 -3 51 -6 70 -9 19 -2 51 -6 70 -9 19 -3 53 -8 75 -11 22 -2
58 -7 79 -10 22 -3 58 -7 80 -10 23 -2 57 -7 78 -10 20 -3 54 -8 75 -10 38 -4
85 -10 158 -19 22 -3 63 -8 90 -11 28 -3 64 -8 80 -11 17 -3 48 -8 70 -10 46
-5 90 -12 90 -14 0 0 27 -3 60 -6 69 -6 86 -8 135 -17 19 -3 60 -9 90 -12 30
-3 71 -8 90 -12 19 -3 48 -7 65 -8 16 -2 30 -4 30 -4 0 -1 22 -4 49 -6 28 -2
66 -6 85 -9 37 -6 71 -11 151 -21 25 -3 55 -7 67 -9 12 -3 51 -7 88 -10 37 -4
70 -8 74 -10 3 -2 33 -6 66 -10 33 -3 71 -8 85 -10 14 -3 50 -7 81 -11 31 -3
67 -8 80 -11 31 -6 114 -15 161 -17 21 -1 38 -4 38 -7 0 -3 12 -6 28 -7 47 -2
146 -13 172 -19 14 -3 39 -7 56 -9 18 -2 54 -6 80 -10 27 -3 74 -8 104 -11 30
-3 62 -7 70 -10 8 -3 40 -8 70 -10 30 -3 64 -7 76 -9 11 -2 45 -7 75 -10 30
-4 79 -10 109 -15 30 -4 62 -8 70 -8 8 0 29 -3 45 -6 17 -3 53 -8 80 -11 28
-3 66 -8 85 -11 19 -3 53 -7 75 -9 22 -2 40 -4 40 -5 0 -1 18 -4 40 -6 22 -2
74 -8 115 -14 41 -6 93 -13 115 -15 38 -4 70 -8 145 -20 19 -2 58 -8 85 -11
28 -3 55 -7 60 -8 7 0 11 367 13 1081 l2 1083 -25 5 c-14 3 -37 8 -52 11 -16
3 -44 8 -63 10 -19 3 -48 9 -65 14 -16 5 -46 11 -65 14 -19 3 -47 7 -62 10
-16 3 -38 8 -50 10 -13 3 -34 8 -48 11 -14 3 -41 8 -60 11 -19 3 -44 8 -55 11
-11 4 -27 7 -35 8 -8 1 -53 9 -100 18 -47 9 -96 18 -110 21 -14 2 -32 7 -40
10 -8 3 -34 7 -57 10 -23 2 -46 7 -50 9 -5 3 -27 8 -48 11 -22 3 -59 10 -82
16 -24 5 -46 9 -50 8 -5 0 -15 1 -23 5 -14 5 -76 18 -110 22 -8 1 -28 5 -45 9
-16 3 -41 8 -55 11 -14 2 -45 9 -70 14 -38 8 -102 20 -120 21 -3 1 -23 5 -45
10 -62 15 -108 23 -132 24 -13 1 -23 4 -23 7 0 3 -6 6 -12 7 -28 2 -83 10 -83
12 0 1 -9 3 -20 5 -11 2 -36 7 -55 10 -19 4 -46 9 -60 11 -14 2 -36 7 -50 10
-14 4 -34 8 -45 10 -21 3 -48 9 -100 20 -16 4 -37 8 -45 9 -13 2 -58 10 -115
22 -11 2 -45 9 -75 14 -79 16 -85 17 -85 19 0 1 -11 3 -25 4 -14 1 -34 5 -45
8 -11 4 -36 9 -55 12 -19 3 -46 8 -60 11 -57 11 -177 35 -200 39 -14 3 -50 10
-80 16 -30 7 -64 13 -75 14 -11 1 -29 5 -40 9 -11 4 -36 9 -55 12 -53 8 -82
13 -115 20 -68 14 -172 35 -195 39 -14 2 -59 11 -100 20 -41 8 -87 17 -103 20
-15 3 -35 7 -45 10 -9 3 -33 8 -52 10 -72 11 -106 17 -134 26 -15 6 -32 7 -37
4 -5 -3 -9 0 -9 6 0 6 -4 9 -8 6 -4 -2 -118 17 -252 44 -135 26 -258 50 -275
53 -16 3 -37 8 -45 11 -8 3 -31 7 -50 10 -19 3 -45 8 -56 10 -12 2 -38 7 -59
10 -20 4 -40 8 -44 11 -4 2 -30 7 -57 11 -27 3 -52 8 -55 10 -15 9 -98 11
-129 3z"/>
<path d="M7078 11535 c-2 -2 -28 -6 -58 -9 -30 -4 -71 -8 -90 -10 -19 -2 -62
-7 -95 -10 -33 -3 -71 -8 -85 -11 -14 -2 -52 -7 -85 -10 -33 -3 -71 -8 -85
-10 -14 -2 -52 -6 -85 -10 -33 -3 -71 -7 -85 -10 -14 -2 -52 -7 -85 -10 -32
-4 -63 -9 -67 -11 -4 -3 -8 1 -8 8 0 9 -3 10 -8 2 -4 -6 -38 -14 -77 -18 -38
-4 -86 -9 -105 -11 -19 -3 -57 -7 -85 -9 -27 -3 -50 -6 -50 -6 0 -3 -44 -7
-107 -11 -32 -2 -58 -6 -58 -9 0 -3 -15 -5 -33 -6 -17 -1 -57 -4 -87 -8 -30
-3 -71 -8 -90 -10 -44 -5 -134 -16 -180 -21 -19 -3 -55 -7 -80 -9 -52 -6 -112
-14 -172 -22 -24 -3 -68 -7 -98 -9 -62 -5 -96 -11 -109 -20 -5 -3 -12 -1 -16
5 -4 6 -11 8 -16 4 -11 -7 -40 -12 -99 -18 -143 -15 -167 -18 -190 -21 -14 -3
-52 -7 -85 -10 -33 -3 -71 -8 -85 -10 -14 -2 -47 -6 -75 -9 -57 -6 -148 -17
-185 -21 -14 -2 -50 -6 -80 -9 -30 -4 -68 -9 -85 -11 -16 -2 -57 -7 -90 -11
-33 -3 -71 -7 -85 -9 -14 -1 -47 -5 -75 -9 -27 -4 -70 -9 -95 -11 -25 -3 -66
-7 -91 -10 -25 -3 -66 -7 -90 -11 -50 -6 -104 -12 -171 -19 -26 -2 -59 -7 -75
-9 -15 -3 -59 -8 -98 -12 -38 -3 -77 -8 -85 -9 -8 -2 -46 -6 -85 -10 -38 -4
-79 -9 -90 -11 -11 -2 -48 -6 -83 -10 -35 -3 -71 -7 -80 -9 -9 -1 -51 -6 -92
-10 -41 -4 -78 -10 -83 -14 -4 -4 -6 -495 -5 -1091 l3 -1085 35 2 c19 2 85 5
145 8 61 2 155 7 210 10 55 3 147 7 205 10 58 3 161 7 230 11 69 3 157 7 195
9 39 2 129 6 200 9 72 4 166 8 210 11 44 2 141 7 215 10 74 4 169 8 210 10
135 8 293 15 400 20 58 2 105 5 105 5 0 1 166 9 307 14 59 2 112 7 118 11 5 3
10 1 10 -5 0 -6 5 -8 12 -4 7 5 46 9 88 11 41 1 120 5 175 7 258 12 338 16
445 21 63 2 151 7 195 9 44 3 139 7 210 11 72 3 164 8 205 10 263 15 365 18
525 18 99 0 232 -3 295 -6 63 -4 165 -9 225 -12 61 -3 156 -7 213 -11 56 -3
142 -7 190 -9 48 -2 139 -7 202 -10 63 -3 158 -7 210 -10 52 -2 158 -7 235
-11 77 -4 170 -7 207 -8 38 0 68 -5 68 -10 0 -5 6 -3 13 3 8 6 17 8 20 4 4 -3
46 -7 94 -9 86 -2 239 -9 431 -19 53 -3 147 -8 207 -10 61 -3 151 -8 200 -10
50 -2 140 -6 200 -9 61 -3 157 -7 215 -10 58 -3 157 -8 220 -11 63 -3 153 -8
200 -10 47 -3 141 -7 210 -10 69 -4 166 -8 215 -10 83 -4 224 -11 400 -19 219
-11 359 -17 364 -18 3 0 14 0 24 1 16 1 17 58 15 1083 l-3 1081 -25 3 c-14 1
-49 4 -77 6 -29 1 -53 5 -53 8 0 3 -19 6 -42 7 -47 2 -120 9 -183 18 -22 3
-58 7 -80 9 -22 2 -58 6 -80 10 -22 3 -65 8 -95 11 -30 2 -66 7 -80 9 -14 2
-54 7 -90 11 -36 4 -74 9 -84 10 -11 2 -47 6 -80 9 -34 3 -79 8 -101 11 -99
12 -142 17 -175 20 -19 1 -51 5 -70 8 -19 3 -71 9 -115 12 -44 4 -83 9 -87 11
-4 3 -35 7 -70 9 -35 3 -72 7 -83 9 -11 2 -54 7 -95 11 -97 10 -118 12 -160
19 -19 3 -62 8 -95 11 -33 4 -73 8 -90 10 -16 2 -57 7 -90 10 -33 4 -73 8 -90
11 -16 2 -52 6 -80 8 -27 3 -50 5 -50 6 0 1 -20 3 -45 6 -90 10 -116 13 -150
18 -19 3 -64 8 -100 11 -36 3 -78 7 -95 10 -16 2 -55 7 -85 10 -30 3 -68 8
-85 10 -32 5 -90 12 -170 20 -27 3 -68 8 -90 11 -22 2 -60 6 -85 9 -25 3 -61
7 -80 10 -19 3 -66 8 -105 11 -66 4 -110 10 -110 14 0 1 -25 4 -55 5 -30 2
-71 6 -90 9 -19 3 -60 8 -90 11 -30 3 -73 9 -95 12 -22 3 -56 7 -75 9 -68 7
-254 28 -345 40 -22 3 -60 7 -85 9 -25 3 -63 7 -85 10 -22 3 -65 7 -95 11 -30
3 -68 8 -85 10 -38 6 -242 13 -247 9z"/>
<path d="M7179 8536 c-2 -3 -94 -7 -204 -10 -110 -4 -249 -8 -310 -11 -60 -2
-193 -7 -295 -10 -102 -3 -234 -8 -295 -10 -60 -2 -193 -7 -295 -10 -102 -3
-232 -8 -290 -10 -58 -2 -181 -6 -275 -9 -93 -4 -237 -8 -320 -11 -82 -3 -217
-7 -298 -9 -82 -3 -151 -7 -155 -10 -3 -3 -11 -1 -19 5 -7 6 -13 7 -13 2 0 -5
-42 -9 -92 -10 -96 -1 -393 -10 -393 -12 0 -2 -388 -12 -517 -14 -60 -1 -108
-4 -108 -7 0 -3 -55 -6 -123 -6 -67 -1 -212 -5 -322 -9 -110 -4 -229 -8 -265
-8 l-65 -2 0 -1090 0 -1090 40 -1 c22 -1 123 -5 225 -8 102 -3 248 -9 325 -11
77 -3 210 -7 297 -9 87 -3 162 -7 167 -10 5 -4 12 -2 16 4 4 6 12 7 18 3 7 -4
57 -8 112 -9 55 -1 179 -5 275 -8 341 -12 546 -19 627 -20 46 0 83 -5 83 -9 0
-4 9 -3 20 3 11 6 20 7 20 3 0 -4 53 -9 118 -9 64 -1 200 -4 302 -8 102 -3
259 -8 350 -11 91 -3 219 -8 285 -10 66 -3 188 -7 270 -10 83 -2 220 -7 305
-10 302 -11 762 -26 795 -26 19 0 370 11 475 16 58 2 197 7 310 10 113 4 257
8 320 11 114 4 268 9 570 19 85 3 218 7 295 10 77 3 206 7 286 9 81 2 152 6
158 10 6 4 20 2 31 -4 11 -6 20 -7 20 -3 0 4 42 9 93 9 50 1 178 5 282 8 277
10 508 17 605 20 47 1 91 5 98 10 6 4 12 3 12 -1 0 -5 15 -8 33 -6 17 1 100 5
182 8 83 2 215 7 295 10 80 3 208 7 285 10 77 2 221 7 320 11 99 3 186 7 193
7 9 0 12 224 12 1084 l0 1083 -77 1 c-43 0 -125 2 -183 4 -283 10 -445 16
-550 21 -63 3 -121 5 -127 4 -7 0 -19 0 -25 0 -7 -1 -74 2 -148 4 -484 18
-793 28 -887 29 -46 1 -83 5 -83 10 0 4 -8 4 -17 -1 -10 -5 -27 -8 -38 -5 -21
4 -268 13 -432 16 -51 1 -93 5 -93 10 0 4 -8 3 -19 -2 -10 -6 -20 -8 -23 -6
-2 3 -92 7 -199 11 -107 3 -241 7 -299 9 -347 12 -440 15 -575 20 -82 2 -213
7 -290 10 -77 3 -214 7 -305 10 -91 3 -165 5 -165 5 0 1 -71 3 -159 6 -87 2
-162 6 -166 9 -4 2 -9 3 -11 1z"/>
<path d="M11904 5741 c-2 -2 -48 -5 -101 -7 -110 -3 -284 -11 -633 -29 -63 -3
-167 -8 -230 -10 -63 -3 -160 -8 -215 -11 -55 -3 -143 -7 -195 -9 -52 -2 -140
-6 -195 -9 -97 -6 -260 -14 -435 -21 -103 -5 -270 -13 -405 -20 -148 -7 -337
-16 -450 -20 -55 -2 -100 -4 -100 -5 0 -2 -37 -3 -285 -14 -69 -3 -183 -9
-255 -12 -71 -4 -156 -7 -187 -8 -32 -1 -58 -5 -58 -10 0 -5 -6 -3 -13 3 -8 6
-16 9 -19 6 -4 -4 -50 -7 -338 -20 -135 -6 -253 -12 -410 -21 -69 -3 -144 -7
-167 -7 -24 0 -43 -6 -43 -11 0 -7 -3 -8 -8 -1 -4 6 -20 11 -37 11 -16 1 -92
5 -169 8 -133 6 -168 8 -406 21 -58 3 -168 8 -245 11 -77 3 -169 8 -205 10
-36 2 -119 6 -185 9 -66 3 -167 7 -225 10 -58 3 -144 7 -191 9 -47 2 -91 6
-98 10 -6 4 -11 2 -11 -4 0 -6 -5 -8 -11 -4 -6 4 -50 8 -98 10 -83 3 -156 6
-416 19 -66 4 -158 8 -205 10 -47 2 -85 4 -85 4 0 1 -56 4 -125 6 -69 3 -165
7 -214 10 -49 3 -136 8 -195 10 -267 12 -335 16 -339 19 -2 2 -16 0 -32 -4
-16 -4 -31 -5 -35 -2 -7 7 -28 9 -193 15 -62 3 -116 7 -118 10 -3 3 -18 1 -34
-3 -16 -4 -31 -6 -34 -3 -6 6 -53 9 -246 17 -58 3 -166 8 -240 12 -74 3 -160
7 -190 8 l-55 1 -3 -1087 c-1 -599 1 -1088 5 -1089 5 0 22 -2 38 -4 17 -2 55
-7 85 -10 30 -3 66 -7 80 -9 14 -2 52 -7 85 -10 65 -6 119 -13 175 -21 38 -5
133 -16 189 -20 20 -2 36 -4 36 -5 0 -1 11 -3 25 -4 58 -6 152 -17 187 -22 21
-3 58 -7 83 -9 25 -2 45 -4 45 -5 0 -1 16 -3 35 -5 19 -1 55 -5 80 -8 25 -4
77 -9 115 -13 39 -3 79 -8 90 -10 20 -4 75 -11 155 -19 24 -3 67 -7 95 -11 27
-3 66 -8 85 -10 19 -2 49 -6 65 -8 17 -2 59 -7 95 -10 36 -4 76 -9 90 -11 25
-4 110 -14 185 -20 22 -2 58 -7 80 -10 22 -4 58 -8 80 -10 22 -2 40 -4 40 -5
0 0 20 -3 45 -5 25 -2 63 -7 85 -9 22 -3 63 -8 90 -11 97 -11 130 -14 173 -20
23 -3 63 -7 90 -10 26 -3 63 -8 83 -11 20 -3 57 -7 83 -10 44 -4 106 -11 171
-19 17 -2 53 -6 80 -9 28 -2 73 -8 100 -12 28 -4 67 -7 88 -8 20 0 37 -3 37
-6 0 -3 19 -6 43 -7 23 -2 62 -5 87 -8 25 -3 63 -7 85 -10 98 -10 132 -14 160
-19 17 -3 57 -7 90 -11 59 -6 202 -22 260 -30 17 -2 55 -7 85 -10 30 -3 80 -8
110 -12 30 -4 72 -7 92 -7 21 -1 38 -3 38 -6 0 -8 33 -10 150 -10 81 -1 165 4
165 10 0 1 16 3 36 5 32 2 63 6 194 21 22 2 56 6 75 9 19 3 53 7 75 9 57 7
155 18 190 22 17 2 57 6 90 8 33 3 67 7 75 10 8 3 44 8 80 10 36 3 65 5 65 6
0 3 33 8 100 14 39 3 81 8 95 11 14 2 54 7 90 10 65 6 94 9 180 20 62 7 116
13 180 20 30 3 69 8 85 10 34 5 102 12 173 20 63 7 131 15 162 20 14 2 54 6
90 10 36 3 83 8 105 11 49 7 80 10 172 19 70 6 108 12 108 15 0 1 23 3 51 5
29 1 67 5 85 8 19 4 63 9 99 13 62 6 89 10 100 14 3 1 9 2 14 1 8 -2 93 7 231
25 22 2 60 7 85 9 25 3 59 7 75 9 51 7 158 18 200 21 22 2 41 4 43 5 1 2 16 4
32 5 17 1 31 3 33 4 2 2 62 9 137 15 25 3 45 5 45 6 0 1 11 3 25 5 14 1 57 5
95 10 68 7 89 9 165 19 19 2 67 7 105 11 39 4 77 9 85 10 8 2 49 6 90 10 41 4
83 9 93 11 10 2 46 6 80 10 34 3 76 8 92 10 64 8 165 19 218 23 16 1 17 60 17
1084 l0 1083 -71 0 c-39 -1 -72 -3 -75 -5z"/>
<path d="M12029 3126 c-2 -3 -31 -8 -64 -11 -33 -4 -62 -9 -65 -10 -3 -2 -39
-6 -80 -10 -41 -4 -77 -8 -80 -10 -3 -2 -37 -6 -75 -10 -39 -4 -79 -9 -90 -11
-11 -2 -40 -6 -65 -10 -25 -3 -63 -8 -85 -11 -22 -3 -56 -7 -75 -8 -19 -2 -35
-4 -35 -5 0 -1 -13 -3 -30 -5 -16 -1 -50 -5 -75 -8 -25 -4 -65 -9 -90 -12 -25
-3 -58 -8 -75 -10 -16 -2 -70 -9 -120 -15 -49 -6 -103 -13 -120 -15 -36 -6
-120 -17 -155 -20 -14 -2 -25 -4 -25 -5 0 -2 -101 -12 -137 -13 -16 -1 -28 -4
-28 -7 0 -3 -10 -6 -22 -6 -13 -1 -50 -4 -83 -9 -66 -9 -98 -12 -165 -19 -25
-3 -45 -5 -45 -6 0 -2 -21 -5 -105 -15 -36 -4 -72 -8 -80 -10 -8 -1 -42 -6
-75 -9 -33 -4 -71 -9 -85 -11 -66 -10 -199 -28 -235 -30 -22 -2 -40 -4 -40 -5
0 -3 -52 -11 -95 -14 -25 -2 -45 -5 -45 -6 0 -1 -16 -3 -35 -5 -19 -1 -57 -6
-85 -9 -27 -4 -63 -9 -80 -11 -16 -2 -30 -4 -30 -5 0 -2 -11 -3 -130 -15 -44
-4 -82 -9 -85 -10 -6 -4 -55 -11 -140 -21 -94 -11 -138 -16 -220 -28 -25 -4
-61 -8 -80 -11 -19 -3 -55 -7 -79 -10 -24 -4 -64 -8 -90 -10 -25 -2 -55 -6
-67 -9 -23 -5 -112 -17 -159 -22 -53 -5 -200 -24 -235 -29 -14 -2 -63 -9 -110
-15 -47 -6 -96 -13 -110 -15 -14 -2 -50 -7 -80 -10 -30 -3 -62 -8 -70 -10 -8
-2 -46 -6 -83 -10 -37 -3 -77 -8 -89 -10 -88 -17 -184 -23 -223 -13 -16 4 -55
9 -85 12 -72 7 -139 16 -170 22 -14 3 -50 8 -80 10 -30 3 -66 7 -80 9 -14 3
-45 7 -70 10 -25 3 -79 11 -120 17 -41 6 -86 12 -100 13 -14 2 -50 6 -80 10
-30 4 -68 9 -85 11 -84 9 -180 21 -180 24 0 1 -20 3 -45 5 -25 2 -75 8 -112
14 -37 6 -91 14 -120 17 -74 8 -97 11 -228 29 -63 8 -135 18 -160 21 -25 3
-58 8 -75 10 -16 3 -50 7 -75 9 -25 3 -61 7 -80 10 -19 3 -57 8 -85 11 -27 3
-61 7 -75 10 -14 3 -43 7 -65 9 -22 3 -56 7 -75 10 -19 3 -53 7 -75 10 -76 7
-203 24 -240 31 -11 3 -38 6 -60 9 -22 3 -62 8 -90 11 -27 4 -65 7 -82 8 -18
0 -33 3 -33 6 0 3 -17 6 -38 7 -47 3 -117 11 -117 13 0 1 -16 3 -35 5 -38 4
-107 13 -155 20 -16 2 -50 7 -75 10 -25 3 -58 7 -75 10 -16 3 -55 8 -85 10
-30 3 -67 8 -82 10 -66 11 -86 14 -133 20 -91 10 -210 25 -230 29 -11 2 -47 7
-80 11 -33 4 -76 9 -95 12 -19 2 -51 6 -70 8 -19 2 -51 7 -70 9 -19 3 -57 8
-85 12 -78 9 -117 14 -160 20 -22 3 -51 7 -65 9 -14 2 -44 6 -67 9 l-43 6 0
-1090 c0 -865 3 -1090 13 -1091 6 0 19 -2 27 -4 35 -8 207 -44 235 -49 17 -2
41 -7 55 -11 14 -3 40 -8 59 -11 18 -3 41 -7 50 -9 231 -47 481 -95 496 -96 2
0 19 -5 37 -10 18 -5 53 -12 78 -15 25 -3 49 -8 53 -11 4 -2 20 -6 35 -8 15
-2 85 -16 155 -30 71 -15 131 -24 134 -21 4 3 11 2 17 -3 6 -6 25 -12 41 -15
17 -2 30 -5 30 -6 0 -1 34 -7 78 -13 13 -2 29 -7 36 -11 7 -4 15 -6 17 -3 3 3
21 1 40 -4 19 -6 46 -12 62 -14 33 -5 68 -12 90 -19 9 -3 34 -8 55 -10 21 -3
41 -7 45 -10 4 -2 29 -7 56 -10 27 -4 53 -9 56 -11 4 -3 22 -6 41 -9 19 -2 45
-7 59 -10 14 -3 39 -8 55 -11 60 -11 80 -16 100 -22 11 -4 29 -7 40 -8 30 -3
92 -15 165 -31 36 -7 76 -16 90 -18 36 -7 71 -14 205 -41 66 -13 134 -26 150
-29 17 -2 30 -5 30 -6 0 -1 9 -3 20 -5 11 -2 34 -6 50 -9 40 -9 124 -25 155
-30 14 -2 47 -9 73 -15 27 -6 53 -9 58 -6 5 4 9 2 9 -3 0 -8 56 -20 125 -27 6
-1 19 -4 30 -8 18 -5 55 -12 120 -22 11 -2 32 -8 46 -13 15 -6 29 -9 31 -7 2
3 36 -2 74 -10 38 -9 103 -22 144 -30 41 -8 86 -17 100 -20 14 -3 39 -8 55
-11 17 -3 35 -7 40 -8 6 -2 33 -7 60 -11 28 -5 52 -10 55 -10 3 -1 16 -5 30
-8 14 -4 39 -9 55 -11 17 -2 30 -5 30 -6 0 -2 9 -4 20 -5 30 -4 79 -14 184
-36 52 -10 102 -17 110 -15 9 3 34 7 56 11 22 3 72 12 110 20 39 8 81 16 95
18 24 5 97 19 113 23 4 1 8 2 10 3 1 1 16 4 32 6 36 4 94 14 115 20 8 2 31 7
50 11 45 8 65 12 65 14 0 1 9 3 20 5 11 1 36 6 55 10 19 4 46 8 60 9 14 2 34
6 45 9 11 3 31 8 45 11 14 3 34 7 45 9 41 9 120 20 128 19 4 -1 7 2 7 6 0 4
10 8 23 9 12 0 36 3 52 7 17 3 46 9 65 12 19 3 55 10 80 16 25 5 56 12 70 14
14 3 70 14 125 25 55 11 114 22 130 25 17 3 35 7 40 8 6 2 33 7 60 11 58 10
64 12 68 15 1 1 13 3 27 5 14 2 36 6 50 9 35 8 70 15 105 21 17 3 39 7 50 9
11 2 55 11 97 20 42 9 94 19 115 22 47 8 67 12 71 14 4 4 113 23 137 25 6 0
16 4 23 8 6 5 12 6 12 4 0 -3 19 0 43 5 23 5 53 12 67 14 14 3 126 25 250 49
222 43 300 59 310 60 3 0 10 3 15 6 6 3 17 5 25 4 8 -1 26 3 39 7 13 5 40 11
60 13 37 5 72 12 81 15 3 1 8 2 12 1 4 0 36 6 70 14 35 8 79 17 98 20 19 3 53
10 75 15 22 5 41 7 44 5 2 -3 10 0 18 6 7 6 13 9 13 6 0 -3 19 0 43 5 53 12
85 19 117 23 14 2 26 4 28 6 3 2 11 4 67 14 28 4 55 9 60 11 6 1 22 4 38 7 15
3 35 8 45 11 9 3 34 7 54 10 21 3 58 10 83 16 25 6 62 13 83 16 47 8 67 12 67
14 0 1 9 3 20 5 11 1 36 6 55 10 19 3 46 8 60 11 32 5 65 12 65 14 0 1 16 3
35 6 19 2 67 11 105 19 39 9 81 18 95 20 14 3 37 7 53 11 l27 6 0 1078 c0 593
-4 1081 -9 1084 -4 3 -10 4 -12 2z"/>
</g>
</svg>
