<svg viewBox="0 0 265.23126 284.59066" xmlns="http://www.w3.org/2000/svg" width="65" height="65"><path d="m214.15124 120.93067c-2.51-.47-6.75-1.2-9.65-2a344.33935 344.33935 0 0 0 -3.89-42.35l-11.76 1.68c-32.93 31.49-85.72 32.06-126.26 34.94-.4 1.73-.78 3.58-1.12 5.48-3.94 1.11-9 2-11 2.34a79.41019 79.41019 0 0 0 -.05 22.41c3.36.6 7.56 1.37 11 2.36.35 1.85.73 3.68 1.13 5.45 5 .41 10.11.77 15.35 1.14-1.76 4.19-3.45 8.7-5.46 14.28-3.11 8.58-5.37 20.77-6.21 25.37a4.22 4.22 0 0 0 2.77 4.97 220.68017 220.68017 0 0 0 22.29 4.51 4.26 4.26 0 0 0 4.93-3.09 4.32 4.32 0 0 0 -1.37-4.26c-6.51-5.57-3.65-24.24 3.31-40.09 32.65 3.06 66.78 9.38 90.6 32.15l11.74 1.76a321.997 321.997 0 0 0 4-42.33c3-.78 7.91-1.74 9.64-2a97.33071 97.33071 0 0 0 0-22.7m30.08 11.8c-.2 61.45-50 111.5-111.54 111.3a118.99961 118.99961 0 0 1 -32.84-4.92l-38.32 15 2.21-33.87a113 113 0 0 1 -42.73-88.26c.17-61.42 50.4-111.25 112-111.06a111.58724 111.58724 0 0 1 111.23 111.79m21 .07c-.04-73-59.1-132.57-132.23-132.8s-132.77 59-133 132a132.17 132.17 0 0 0 42.54 97.71l-3 54.88 60.35-23.67 1.4.36a139.09082 139.09082 0 0 0 31.36 3.84c72.34 0 132.5-58.85 132.5-132.29" fill="#ff5b00"/></svg>