<svg xmlns="http://www.w3.org/2000/svg" width="102.628" height="62.34" viewBox="0 0 102.628 62.34">
  <g id="Сгруппировать_142" data-name="Сгруппировать 142" transform="translate(0 0.001)">
    <g id="Сгруппировать_140" data-name="Сгруппировать 140" transform="translate(10.883 8.257)">
      <g id="Сгруппировать_137" data-name="Сгруппировать 137" transform="translate(0 13.509)">
        <path id="Контур_71" data-name="Контур 71" d="M46.046,68.777H23.039a.239.239,0,1,1,0-.477H46.094a.225.225,0,0,1,.239.239A.267.267,0,0,1,46.046,68.777Z" transform="translate(-22.8 -68.3)" fill="#007d4a"/>
      </g>
      <g id="Сгруппировать_138" data-name="Сгруппировать 138" transform="translate(0.048)">
        <path id="Контур_72" data-name="Контур 72" d="M40.289,46.421v.1a3.456,3.456,0,0,1,.907-.525,2.569,2.569,0,0,1,1.05-.191,1.958,1.958,0,0,1,.525.048.962.962,0,0,1,.525.143,1.039,1.039,0,0,1,.382.239.542.542,0,0,1,.143.382.43.43,0,0,1-.048.239c-.048.048-.1.143-.143.191a.659.659,0,0,1-.191.143.43.43,0,0,1-.239.048.519.519,0,0,1-.239-.048,2.162,2.162,0,0,0-.764-.143,1.979,1.979,0,0,0-.764.143,1.454,1.454,0,0,0-.621.43,1.817,1.817,0,0,0-.43.621,2.162,2.162,0,0,0-.143.764v2.625a.583.583,0,0,1-.191.43.605.605,0,0,1-.43.191.518.518,0,0,1-.43-.191.605.605,0,0,1-.191-.43v-5.2a.583.583,0,0,1,.191-.43.605.605,0,0,1,.43-.191.583.583,0,0,1,.43.191.505.505,0,0,1,.239.43" transform="translate(-31.315 -43.031)" fill="#004590"/>
        <path id="Контур_73" data-name="Контур 73" d="M29.344,46.421a.583.583,0,0,0-.191-.43.605.605,0,0,0-.43-.191.518.518,0,0,0-.43.191.605.605,0,0,0-.191.43v.1c-.048-.048-.1-.048-.143-.1a2.421,2.421,0,0,0-.764-.43h-.048A3.724,3.724,0,0,0,26.1,45.8a3.2,3.2,0,0,0,0,6.4,2.569,2.569,0,0,0,1.05-.191,3.456,3.456,0,0,0,.907-.525v.143a.583.583,0,0,0,.191.43.605.605,0,0,0,.43.191.583.583,0,0,0,.43-.191.605.605,0,0,0,.191-.43V49.046h0V46.421ZM27.96,49.81a2.11,2.11,0,0,1-1.05,1.05,2.162,2.162,0,0,1-.764.143,1.979,1.979,0,0,1-.764-.143,1.454,1.454,0,0,1-.621-.43,1.816,1.816,0,0,1-.43-.621,2.162,2.162,0,0,1-.143-.764,1.979,1.979,0,0,1,.143-.764,1.454,1.454,0,0,1,.43-.621,1.817,1.817,0,0,1,.621-.43,2.162,2.162,0,0,1,.764-.143,1.979,1.979,0,0,1,.764.143,1.454,1.454,0,0,1,.621.43,1.816,1.816,0,0,1,.43.621,1.979,1.979,0,0,1,.143.764A1.107,1.107,0,0,1,27.96,49.81Z" transform="translate(-22.9 -43.031)" fill="#004590"/>
        <path id="Контур_74" data-name="Контур 74" d="M64.744,46.421a.583.583,0,0,0-.191-.43.605.605,0,0,0-.43-.191.518.518,0,0,0-.43.191.605.605,0,0,0-.191.43v.1c-.048-.048-.1-.048-.143-.1a2.421,2.421,0,0,0-.764-.43h-.048A4.06,4.06,0,0,0,61.5,45.8a3.2,3.2,0,0,0,0,6.4,2.569,2.569,0,0,0,1.05-.191,3.456,3.456,0,0,0,.907-.525v.143a.583.583,0,0,0,.191.43.605.605,0,0,0,.43.191.583.583,0,0,0,.43-.191.605.605,0,0,0,.191-.43V49.046h0V46.421ZM63.408,49.81a2.11,2.11,0,0,1-1.05,1.05,2.162,2.162,0,0,1-.764.143,2.424,2.424,0,0,1-.811-.143,1.453,1.453,0,0,1-.621-.43,1.816,1.816,0,0,1-.43-.621,2.162,2.162,0,0,1-.143-.764,1.979,1.979,0,0,1,.143-.764,1.454,1.454,0,0,1,.43-.621,1.817,1.817,0,0,1,.621-.43,2.23,2.23,0,0,1,.811-.143,1.979,1.979,0,0,1,.764.143,1.454,1.454,0,0,1,.621.43,1.817,1.817,0,0,1,.43.621,1.979,1.979,0,0,1,.143.764A2.162,2.162,0,0,1,63.408,49.81Z" transform="translate(-41.402 -43.031)" fill="#004590"/>
        <path id="Контур_75" data-name="Контур 75" d="M51.5,42.769V40.621a.583.583,0,0,1,.191-.43.605.605,0,0,1,.43-.191.583.583,0,0,1,.43.191.605.605,0,0,1,.191.43v6.205a1.013,1.013,0,0,0,1.146,1.146.583.583,0,0,1,.43.191.589.589,0,0,1,.191.382.518.518,0,0,1-.191.43.605.605,0,0,1-.43.191,2.074,2.074,0,0,1-2.339-2.339V42.769Z" transform="translate(-37.848 -40)" fill="#004590"/>
      </g>
      <g id="Сгруппировать_139" data-name="Сгруппировать 139" transform="translate(0.048 15.466)">
        <path id="Контур_76" data-name="Контур 76" d="M26.146,84.7a3.037,3.037,0,0,1-2-.716v2.864a.465.465,0,0,1-.191.43.605.605,0,0,1-.43.191.465.465,0,0,1-.43-.191.605.605,0,0,1-.191-.43V81.5a3.173,3.173,0,0,1,5.442-2.243,3.161,3.161,0,0,1,.716,1.05,3.586,3.586,0,0,1,.239,1.241,3.029,3.029,0,0,1-.955,2.243,2.946,2.946,0,0,1-1.05.716A3.817,3.817,0,0,1,26.146,84.7Zm-2-3.2a1.979,1.979,0,0,0,.143.764,1.454,1.454,0,0,0,.43.621,1.816,1.816,0,0,0,.621.43,2.162,2.162,0,0,0,.764.143,1.979,1.979,0,0,0,.764-.143,1.454,1.454,0,0,0,.621-.43,1.816,1.816,0,0,0,.43-.621,2.108,2.108,0,0,0,0-1.527,2.109,2.109,0,0,0-1.05-1.05,2.162,2.162,0,0,0-.764-.143,1.979,1.979,0,0,0-.764.143,1.453,1.453,0,0,0-.621.43,1.816,1.816,0,0,0-.43.621A1.979,1.979,0,0,0,24.141,81.5Z" transform="translate(-22.9 -75.484)" fill="#007d4a"/>
        <path id="Контур_77" data-name="Контур 77" d="M39.689,78.821v.1a3.456,3.456,0,0,1,.907-.525,2.569,2.569,0,0,1,1.05-.191,2.14,2.14,0,0,1,.525.048.962.962,0,0,1,.525.143,1.039,1.039,0,0,1,.382.239.542.542,0,0,1,.143.382.43.43,0,0,1-.048.239.844.844,0,0,1-.334.334.621.621,0,0,1-.477,0,2.108,2.108,0,0,0-1.527,0,1.453,1.453,0,0,0-.621.43,1.816,1.816,0,0,0-.43.621,2.162,2.162,0,0,0-.143.764v2.578a.583.583,0,0,1-.191.43.605.605,0,0,1-.43.191.518.518,0,0,1-.43-.191.605.605,0,0,1-.191-.43V78.821a.583.583,0,0,1,.191-.43.605.605,0,0,1,.43-.191.583.583,0,0,1,.43.191A.66.66,0,0,1,39.689,78.821Z" transform="translate(-31.001 -75.431)" fill="#007d4a"/>
        <path id="Контур_78" data-name="Контур 78" d="M55.5,81.5a3.029,3.029,0,0,1-.955,2.243,3.2,3.2,0,1,1,0-4.487,3.733,3.733,0,0,1,.716,1.05A2.433,2.433,0,0,1,55.5,81.5Zm-3.2-2a1.979,1.979,0,0,0-.764.143,1.454,1.454,0,0,0-.621.43,1.816,1.816,0,0,0-.43.621,2.108,2.108,0,0,0,0,1.527,1.453,1.453,0,0,0,.43.621,1.816,1.816,0,0,0,.621.43,2.162,2.162,0,0,0,.764.143,1.979,1.979,0,0,0,.764-.143,1.454,1.454,0,0,0,.621-.43,1.816,1.816,0,0,0,.43-.621,2.108,2.108,0,0,0,0-1.527A1.922,1.922,0,0,0,52.3,79.493Z" transform="translate(-36.594 -75.484)" fill="#007d4a"/>
        <path id="Контур_79" data-name="Контур 79" d="M67.846,84.7a3.037,3.037,0,0,1-2-.716v2.864a.465.465,0,0,1-.191.43.605.605,0,0,1-.43.191.465.465,0,0,1-.43-.191.605.605,0,0,1-.191-.43V81.5a3.173,3.173,0,0,1,5.442-2.243,3.161,3.161,0,0,1,.716,1.05A3.586,3.586,0,0,1,71,81.546a3.029,3.029,0,0,1-.955,2.243,2.946,2.946,0,0,1-1.05.716A4.1,4.1,0,0,1,67.846,84.7Zm-2-3.2a1.979,1.979,0,0,0,.143.764,1.453,1.453,0,0,0,.43.621,1.816,1.816,0,0,0,.621.43,2.162,2.162,0,0,0,.764.143,1.979,1.979,0,0,0,.764-.143,1.453,1.453,0,0,0,.621-.43,1.816,1.816,0,0,0,.43-.621,2.108,2.108,0,0,0,0-1.527,2.11,2.11,0,0,0-1.05-1.05,2.162,2.162,0,0,0-.764-.143,1.979,1.979,0,0,0-.764.143,1.453,1.453,0,0,0-.621.43,1.816,1.816,0,0,0-.43.621A1.979,1.979,0,0,0,65.841,81.5Z" transform="translate(-44.695 -75.484)" fill="#007d4a"/>
        <path id="Контур_80" data-name="Контур 80" d="M85.069,82.882a.465.465,0,0,1,.43.191.605.605,0,0,1,.191.43.583.583,0,0,1-.191.43,3,3,0,0,1-2.1.764,3.2,3.2,0,1,1,2.243-5.442,3.161,3.161,0,0,1,.716,1.05,3.585,3.585,0,0,1,.239,1.241.465.465,0,0,1-.191.43.605.605,0,0,1-.43.191H81.441a1.614,1.614,0,0,0,.286.573,1.823,1.823,0,0,0,.43.43,1.3,1.3,0,0,0,.573.286,2.22,2.22,0,0,0,1.289,0,3.56,3.56,0,0,0,.573-.334A.581.581,0,0,1,85.069,82.882Zm.239-2a1.613,1.613,0,0,0-.286-.573,1.823,1.823,0,0,0-.43-.43,1.3,1.3,0,0,0-.573-.286,2.793,2.793,0,0,0-.621-.1,2.418,2.418,0,0,0-.621.1,1.613,1.613,0,0,0-.573.286,1.823,1.823,0,0,0-.43.43,1.613,1.613,0,0,0-.286.573Z" transform="translate(-52.849 -75.484)" fill="#007d4a"/>
        <path id="Контур_81" data-name="Контур 81" d="M96.789,78.821v.1a3.456,3.456,0,0,1,.907-.525,2.569,2.569,0,0,1,1.05-.191,2.14,2.14,0,0,1,.525.048.962.962,0,0,1,.525.143,1.039,1.039,0,0,1,.382.239.542.542,0,0,1,.143.382.43.43,0,0,1-.048.239.844.844,0,0,1-.334.334.621.621,0,0,1-.477,0,2.108,2.108,0,0,0-1.527,0,1.453,1.453,0,0,0-.621.43,1.816,1.816,0,0,0-.43.621,2.162,2.162,0,0,0-.143.764v2.578a.583.583,0,0,1-.191.43.605.605,0,0,1-.43.191.518.518,0,0,1-.43-.191.605.605,0,0,1-.191-.43V78.821a.583.583,0,0,1,.191-.43.605.605,0,0,1,.43-.191.583.583,0,0,1,.43.191A.505.505,0,0,1,96.789,78.821Z" transform="translate(-60.845 -75.431)" fill="#007d4a"/>
        <path id="Контур_82" data-name="Контур 82" d="M108.273,75.364h.668V73.121a.583.583,0,0,1,.191-.43.6.6,0,0,1,.43-.191.583.583,0,0,1,.43.191.605.605,0,0,1,.191.43v2.243h1.1a.583.583,0,0,1,.43.191.605.605,0,0,1,.191.43.518.518,0,0,1-.191.43.6.6,0,0,1-.43.191h-1.1v2.769a1.013,1.013,0,0,0,1.146,1.146.583.583,0,0,1,.43.191.605.605,0,0,1,.191.43.583.583,0,0,1-.191.43.605.605,0,0,1-.43.191,2.055,2.055,0,0,1-2.339-2.339V76.557h-.668a.583.583,0,0,1-.43-.191.605.605,0,0,1-.191-.43.583.583,0,0,1,.191-.43A.542.542,0,0,1,108.273,75.364Z" transform="translate(-67.222 -72.452)" fill="#007d4a"/>
        <path id="Контур_83" data-name="Контур 83" d="M120.3,84.023l-2.053-4.917a.605.605,0,0,1-.048-.286.43.43,0,0,1,.048-.239.844.844,0,0,1,.334-.334.43.43,0,0,1,.239-.048.885.885,0,0,1,.334.1.489.489,0,0,1,.239.286l1.623,3.819,1.623-3.819a1,1,0,0,1,.191-.286.739.739,0,0,1,.382-.1.43.43,0,0,1,.239.048c.048.048.143.1.191.143a.659.659,0,0,1,.143.191.43.43,0,0,1,.048.239.605.605,0,0,1-.048.286l-3.294,7.876a1.266,1.266,0,0,1-.239.286.4.4,0,0,1-.334.1.465.465,0,0,1-.43-.191.663.663,0,0,1-.143-.716Z" transform="translate(-72.71 -75.431)" fill="#007d4a"/>
        <path id="Контур_84" data-name="Контур 84" d="M140.869,84.023a.583.583,0,0,1-.191.43.6.6,0,0,1-.43.191.583.583,0,0,1-.43-.191.605.605,0,0,1-.191-.43V80.778a2.03,2.03,0,0,0-.1-.525,1.316,1.316,0,0,0-.716-.716.944.944,0,0,0-.525-.1,1.716,1.716,0,0,0-.525.1l-.43.286a1.127,1.127,0,0,0-.286.43,1.717,1.717,0,0,0-.1.525v3.246a.583.583,0,0,1-.191.43.605.605,0,0,1-.43.191.518.518,0,0,1-.43-.191.605.605,0,0,1-.191-.43V80.778a1.717,1.717,0,0,0-.1-.525l-.286-.43a1.127,1.127,0,0,0-.43-.286.944.944,0,0,0-.525-.1,1.716,1.716,0,0,0-.525.1,1.316,1.316,0,0,0-.716.716,1.716,1.716,0,0,0-.1.525v3.246a.583.583,0,0,1-.191.43.605.605,0,0,1-.43.191.583.583,0,0,1-.43-.191.605.605,0,0,1-.191-.43v-5.2a.583.583,0,0,1,.191-.43.605.605,0,0,1,.43-.191.69.69,0,0,1,.334.1c.1.1.191.191.191.286a2.336,2.336,0,0,1,1.384-.382,2.6,2.6,0,0,1,1.05.239,2.333,2.333,0,0,1,.859.668A2.462,2.462,0,0,1,138.2,78.2a2.493,2.493,0,0,1,1,.191,4.731,4.731,0,0,1,.811.525,1.842,1.842,0,0,1,.525.811,2.214,2.214,0,0,1,.191,1v3.294Z" transform="translate(-79.818 -75.431)" fill="#007d4a"/>
        <path id="Контур_85" data-name="Контур 85" d="M170.389,78.821v.1a3.456,3.456,0,0,1,.907-.525,2.569,2.569,0,0,1,1.05-.191,2.14,2.14,0,0,1,.525.048.962.962,0,0,1,.525.143,1.04,1.04,0,0,1,.382.239.542.542,0,0,1,.143.382.43.43,0,0,1-.048.239.844.844,0,0,1-.334.334.621.621,0,0,1-.477,0,2.108,2.108,0,0,0-1.527,0,1.453,1.453,0,0,0-.621.43,1.816,1.816,0,0,0-.43.621,2.162,2.162,0,0,0-.143.764v2.578a.583.583,0,0,1-.191.43.6.6,0,0,1-.43.191.583.583,0,0,1-.43-.191.6.6,0,0,1-.191-.43V78.821a.583.583,0,0,1,.191-.43.605.605,0,0,1,.43-.191.583.583,0,0,1,.43.191A.505.505,0,0,1,170.389,78.821Z" transform="translate(-99.313 -75.431)" fill="#007d4a"/>
        <path id="Контур_86" data-name="Контур 86" d="M186.56,80.562l-2.482-2.816,1.671-1.575a.51.51,0,0,0,.143-.525c0-.1-.048-.143-.1-.239-.048-.048-.1-.143-.143-.143a.362.362,0,0,0-.191-.1h-.239a.34.34,0,0,0-.286.143l-2.2,2v-4.3a.583.583,0,0,0-.191-.43.605.605,0,0,0-.43-.191.518.518,0,0,0-.43.191.605.605,0,0,0-.191.43v7.924a.583.583,0,0,0,.191.43.605.605,0,0,0,.43.191.583.583,0,0,0,.43-.191.605.605,0,0,0,.191-.43v-2l.048-.048.43-.382,2.53,2.864a.542.542,0,0,0,.382.143.43.43,0,0,0,.239-.048.844.844,0,0,0,.334-.334.43.43,0,0,0,.048-.239A.6.6,0,0,0,186.56,80.562Z" transform="translate(-105.794 -72.4)" fill="#007d4a"/>
        <path id="Контур_87" data-name="Контур 87" d="M159.444,78.821a.583.583,0,0,0-.191-.43.605.605,0,0,0-.43-.191.518.518,0,0,0-.43.191.605.605,0,0,0-.191.43v.1c-.048-.048-.1-.048-.1-.1a3.559,3.559,0,0,0-.573-.334h0c-.048-.048-.143-.048-.191-.1H157.3a4.067,4.067,0,0,0-1.1-.191,3.029,3.029,0,0,0-2.243.955A3.107,3.107,0,0,0,153,81.4a3.029,3.029,0,0,0,.955,2.243,3.107,3.107,0,0,0,2.243.955,2.96,2.96,0,0,0,1.1-.191,3.73,3.73,0,0,0,.955-.525v.1a.583.583,0,0,0,.191.43.605.605,0,0,0,.43.191.583.583,0,0,0,.43-.191.605.605,0,0,0,.191-.43v-2.53h0V78.821ZM158.06,82.21a1.454,1.454,0,0,1-.43.621,1.816,1.816,0,0,1-.621.43,2.162,2.162,0,0,1-.764.143,2.424,2.424,0,0,1-.811-.143,1.453,1.453,0,0,1-.621-.43,1.817,1.817,0,0,1-.43-.621,2.162,2.162,0,0,1-.143-.764,1.979,1.979,0,0,1,.143-.764,1.454,1.454,0,0,1,.43-.621,1.816,1.816,0,0,1,.621-.43,2.23,2.23,0,0,1,.811-.143,1.979,1.979,0,0,1,.764.143,1.454,1.454,0,0,1,.621.43,1.817,1.817,0,0,1,.43.621,1.979,1.979,0,0,1,.143.764A1.061,1.061,0,0,1,158.06,82.21Z" transform="translate(-90.898 -75.431)" fill="#007d4a"/>
      </g>
    </g>
    <g id="Сгруппировать_141" data-name="Сгруппировать 141" transform="translate(0 -0.001)">
      <path id="Контур_88" data-name="Контур 88" d="M169.725,127.8H169.2v4.105h.525a1.815,1.815,0,0,0,1.432-.621,2.151,2.151,0,0,0,.477-.668,2.23,2.23,0,0,0,.143-.811,1.815,1.815,0,0,0-.621-1.432A2.15,2.15,0,0,0,169.725,127.8Z" transform="translate(-88.434 -77.632)" fill="#004590"/>
      <path id="Контур_89" data-name="Контур 89" d="M57.032,128.139a.609.609,0,0,0-.286-.191.708.708,0,0,0-.334-.048H55.6v1.671h.811a.812.812,0,0,0,.334-.048.476.476,0,0,0,.239-.191,1,1,0,0,0,.191-.286.708.708,0,0,0,.048-.334.812.812,0,0,0-.048-.334A.263.263,0,0,0,57.032,128.139Z" transform="translate(-29.06 -77.684)" fill="#004590"/>
      <path id="Контур_90" data-name="Контур 90" d="M42.141,128.086a.77.77,0,0,0-.334-.191,1.123,1.123,0,0,0-.382-.1H40.9v1.957h.525a1.124,1.124,0,0,0,.382-.1,2.075,2.075,0,0,0,.334-.191,2.02,2.02,0,0,0,.239-.334.812.812,0,0,0,0-.764C42.284,128.277,42.237,128.182,42.141,128.086Z" transform="translate(-21.377 -77.632)" fill="#004590"/>
      <path id="Контур_91" data-name="Контур 91" d="M72.9,127.8a2.229,2.229,0,0,0-.811.143,1.583,1.583,0,0,0-.668.477,3.389,3.389,0,0,0-.477.668,2.057,2.057,0,0,0-.143.811,1.985,1.985,0,0,0,.621,1.48A1.848,1.848,0,0,0,72.9,132a1.985,1.985,0,0,0,1.48-.621A2.012,2.012,0,0,0,75,129.9a1.815,1.815,0,0,0-.621-1.432A2.034,2.034,0,0,0,72.9,127.8Z" transform="translate(-37.004 -77.632)" fill="#004590"/>
      <path id="Контур_92" data-name="Контур 92" d="M97.377,22.7H5.251A5.236,5.236,0,0,0,0,27.951V79.789A5.236,5.236,0,0,0,5.251,85.04H97.377a5.236,5.236,0,0,0,5.251-5.251V27.951A5.236,5.236,0,0,0,97.377,22.7ZM21.767,75.589a2.344,2.344,0,0,1-1.718.716h-.525v1.432a1,1,0,0,1-.191.525.718.718,0,0,1-.525.191,1,1,0,0,1-.525-.191.652.652,0,0,1-.191-.525V72.2a.605.605,0,0,1,.048-.286c.048-.1.1-.143.143-.239a.406.406,0,0,1,.239-.143.605.605,0,0,1,.286-.048h1.241a2.418,2.418,0,0,1,.621.1,2.92,2.92,0,0,1,.573.239,1.869,1.869,0,0,1,.477.382,3.345,3.345,0,0,1,.382.477,2.92,2.92,0,0,1,.239.573,2.793,2.793,0,0,1,.1.621A2.133,2.133,0,0,1,21.767,75.589Zm8.115,2.434c-.048.1-.1.143-.143.239a.406.406,0,0,1-.239.143.605.605,0,0,1-.286.048.7.7,0,0,1-.621-.334L27.256,75.97H26.54v1.766a1,1,0,0,1-.191.525.692.692,0,0,1-1,0,.718.718,0,0,1-.191-.525V72.2a.605.605,0,0,1,.048-.286c.048-.1.1-.143.143-.239a.263.263,0,0,1,.239-.143.605.605,0,0,1,.286-.048H27.4a1.748,1.748,0,0,1,.859.191,2.676,2.676,0,0,1,.716.477,2.37,2.37,0,0,1,.668,1.575,2.4,2.4,0,0,1-.1.573,1.764,1.764,0,0,1-.239.525,1.869,1.869,0,0,1-.382.477l-.239.239,1.146,1.814a.574.574,0,0,1,.1.382A.316.316,0,0,1,29.881,78.023Zm8.5-.621a3.485,3.485,0,0,1-5.967-2.482,3.5,3.5,0,0,1,1-2.482,3.422,3.422,0,0,1,2.482-1,3.5,3.5,0,0,1,2.482,1,3.022,3.022,0,0,1,.764,1.146,3.166,3.166,0,0,1,.239,1.337A3.346,3.346,0,0,1,38.378,77.4Zm7.828-4.726a.718.718,0,0,1-.525.191H44.392v4.869a1,1,0,0,1-.191.525.652.652,0,0,1-.525.191,1,1,0,0,1-.525-.191.718.718,0,0,1-.191-.525V72.916H41.672a1,1,0,0,1-.525-.191.718.718,0,0,1-.191-.525,1,1,0,0,1,.191-.525.718.718,0,0,1,.525-.191h4.01a1,1,0,0,1,.525.191.652.652,0,0,1,.191.525A.613.613,0,0,1,46.206,72.677Zm6.014,1.575a1,1,0,0,1,.525.191.718.718,0,0,1,.191.525,1,1,0,0,1-.191.525.718.718,0,0,1-.525.191h-2.1v1.337H53.08a1,1,0,0,1,.525.191.718.718,0,0,1,.191.525,1,1,0,0,1-.191.525.718.718,0,0,1-.525.191H49.4a.605.605,0,0,1-.286-.048c-.1-.048-.143-.1-.239-.143a1.044,1.044,0,0,1-.143-.239.605.605,0,0,1-.048-.286V72.2a.605.605,0,0,1,.048-.286c.048-.1.1-.143.143-.239a.406.406,0,0,1,.239-.143.605.605,0,0,1,.286-.048H53.08a1,1,0,0,1,.525.191.718.718,0,0,1,.191.525,1,1,0,0,1-.191.525.718.718,0,0,1-.525.191H50.12v1.337ZM57.853,76.4a1.848,1.848,0,0,0,1.48.621,2.094,2.094,0,0,0,1.289-.43.77.77,0,0,1,.43-.143.605.605,0,0,1,.286.048.659.659,0,0,1,.191.143.406.406,0,0,1,.143.239.605.605,0,0,1,.048.286,1,1,0,0,1-.191.525,3.6,3.6,0,0,1-2.243.811A3.424,3.424,0,0,1,55.8,75.016a3.5,3.5,0,0,1,1-2.482,3.422,3.422,0,0,1,2.482-1,3.6,3.6,0,0,1,2.243.811.776.776,0,0,1,.239.525.606.606,0,0,1-.048.286c-.048.1-.1.143-.143.239a1.043,1.043,0,0,1-.239.143.766.766,0,0,1-.764-.143A2.257,2.257,0,0,0,60,73.059a1.517,1.517,0,0,0-.668-.1,2.121,2.121,0,0,0-2.1,2.053A1.786,1.786,0,0,0,57.853,76.4Zm11.122-3.723a.652.652,0,0,1-.525.191H67.161v4.869a1,1,0,0,1-.191.525.718.718,0,0,1-.525.191,1,1,0,0,1-.525-.191.652.652,0,0,1-.191-.525V72.916H64.441a1,1,0,0,1-.525-.191.718.718,0,0,1-.191-.525,1,1,0,0,1,.191-.525.718.718,0,0,1,.525-.191h4.01a1,1,0,0,1,.525.191.652.652,0,0,1,.191.525A.488.488,0,0,1,68.975,72.677Zm6.158,1.575a1,1,0,0,1,.525.191.718.718,0,0,1,.191.525,1,1,0,0,1-.191.525.718.718,0,0,1-.525.191H73.08v1.337H76.04a1,1,0,0,1,.525.191.718.718,0,0,1,.191.525,1,1,0,0,1-.191.525.718.718,0,0,1-.525.191H72.364a.605.605,0,0,1-.286-.048c-.1-.048-.143-.1-.239-.143a1.043,1.043,0,0,1-.143-.239.606.606,0,0,1-.048-.286V72.2a.606.606,0,0,1,.048-.286c.048-.1.1-.143.143-.239a.263.263,0,0,1,.239-.143.605.605,0,0,1,.286-.048H76.04a1,1,0,0,1,.525.191.718.718,0,0,1,.191.525,1,1,0,0,1-.191.525.718.718,0,0,1-.525.191H73.08v1.337Zm8.592,3.15a3.422,3.422,0,0,1-2.482,1H80a.605.605,0,0,1-.286-.048c-.1-.048-.143-.1-.239-.143a1.044,1.044,0,0,1-.143-.239.605.605,0,0,1-.048-.286V72.152a.605.605,0,0,1,.048-.286c.048-.1.1-.143.143-.239a1.044,1.044,0,0,1,.239-.143A.606.606,0,0,1,80,71.436h1.241a3.5,3.5,0,0,1,2.482,1,3.022,3.022,0,0,1,.764,1.146,3.166,3.166,0,0,1,.239,1.337A3.023,3.023,0,0,1,83.725,77.4ZM98.188,59.455a5.236,5.236,0,0,1-5.251,5.251H9.69a5.236,5.236,0,0,1-5.251-5.251V32.342A5.236,5.236,0,0,1,9.69,27.091h83.3a5.236,5.236,0,0,1,5.251,5.251V59.455Z" transform="translate(0 -22.7)" fill="#004590"/>
    </g>
  </g>
</svg>
