<svg xmlns="http://www.w3.org/2000/svg" width="62.185" height="62.327" viewBox="0 0 62.185 62.327">
  <g id="Сгруппировать_136" data-name="Сгруппировать 136" transform="translate(0 0)">
    <path id="Контур_42" data-name="Контур 42" d="M19.7,140.9H81.85v9.278A3.159,3.159,0,0,1,78.7,153.33H22.887a3.159,3.159,0,0,1-3.152-3.152V140.9Z" transform="translate(-19.7 -91.003)" fill="#009ab1"/>
    <path id="Контур_43" data-name="Контур 43" d="M81.885,48.268H19.7V3.293A3.31,3.31,0,0,1,22.993,0h55.6a3.31,3.31,0,0,1,3.293,3.293Z" transform="translate(-19.7 0)" fill="#009ab1"/>
    <g id="Сгруппировать_133" data-name="Сгруппировать 133" transform="translate(4.816 21.319)">
      <path id="Контур_44" data-name="Контур 44" d="M37.231,60.8a4.365,4.365,0,0,1,2.054-.6,1.894,1.894,0,0,1,1.452.6,2.126,2.126,0,0,1,.531,1.487v4.391H40.1V62.608c0-.885-.319-1.346-.992-1.346a3.01,3.01,0,0,0-.885.177l-.319.142a1.526,1.526,0,0,1,.106.6v4.462H36.841v-4a1.294,1.294,0,0,0-.354-1.027,1.324,1.324,0,0,0-.885-.354,2.2,2.2,0,0,0-1.133.354v5.064H33.3V60.306h1.062l.071.212a2.265,2.265,0,0,1,1.2-.319A1.984,1.984,0,0,1,37.231,60.8Z" transform="translate(-33.3 -60.2)" fill="#fff"/>
      <path id="Контур_45" data-name="Контур 45" d="M60.452,69.643a4.868,4.868,0,0,1-1.346-.283l.46-.992s.035.106.637.212a3.847,3.847,0,0,0,1.558,0,.948.948,0,0,0,.85-1.027V66.6a2.116,2.116,0,0,1-1.417.39,2.163,2.163,0,0,1-1.594-.6,2.431,2.431,0,0,1-.6-1.771V60.435h1.133v3.931a1.822,1.822,0,0,0,.283,1.133,1.21,1.21,0,0,0,.921.319,1.3,1.3,0,0,0,.956-.319,1.605,1.605,0,0,0,.319-1.133V60.4h1.133v7.153a2.017,2.017,0,0,1-.354,1.275,1.931,1.931,0,0,1-1.169.673A4.61,4.61,0,0,1,60.452,69.643Z" transform="translate(-49.899 -60.329)" fill="#fff"/>
    </g>
    <g id="Сгруппировать_134" data-name="Сгруппировать 134" transform="translate(5.064 29.889)">
      <path id="Контур_46" data-name="Контур 46" d="M35.417,88.37a4.534,4.534,0,0,1,1.7-.319,3.336,3.336,0,0,1,1.523.319V84.9h1.487V96.515a18.132,18.132,0,0,1-2.621.212,5,5,0,0,1-2.2-.5A2.379,2.379,0,0,1,34,93.93V90.814A2.407,2.407,0,0,1,35.417,88.37ZM38.6,89.893a3.168,3.168,0,0,0-1.417-.39,2.038,2.038,0,0,0-1.2.39,1.475,1.475,0,0,0-.531,1.31v2.762a1.194,1.194,0,0,0,.921,1.169,3.339,3.339,0,0,0,1.062.177A4.77,4.77,0,0,0,38.6,95.17Z" transform="translate(-34 -84.723)" fill="#fff" stroke="#fff" stroke-miterlimit="10" stroke-width="0.473"/>
      <path id="Контур_47" data-name="Контур 47" d="M59,101.06a4.549,4.549,0,0,0,2.16-.673l.567,1.275a4.919,4.919,0,0,1-2.656.779c-1.912,0-2.868-.815-2.868-2.408v-3.4a2.646,2.646,0,0,1,.85-2.089,3.265,3.265,0,0,1,2.231-.744,3.02,3.02,0,0,1,2.16.744A2.645,2.645,0,0,1,62.22,96.6V98.97l-4.427.248v.637a1.078,1.078,0,0,0,.39.921A1.133,1.133,0,0,0,59,101.06Zm1.629-3.435V96.562a1.144,1.144,0,0,0-.425-.992,1.721,1.721,0,0,0-1.062-.319,1.338,1.338,0,0,0-1.417,1.417v1.169Z" transform="translate(-48.338 -90.471)" fill="#fff" stroke="#fff" stroke-miterlimit="10" stroke-width="0.473"/>
      <path id="Контур_48" data-name="Контур 48" d="M79.423,105.7l-1.523.035V93.942h1.452l.035.354a2.485,2.485,0,0,1,1.629-.5,2.943,2.943,0,0,1,2.337.885,3.412,3.412,0,0,1,.814,2.337v2.3a3.02,3.02,0,0,1-.85,2.3,3.141,3.141,0,0,1-2.231.815,2.722,2.722,0,0,1-1.664-.46Zm3.258-6.587v-2.16a1.731,1.731,0,0,0-.425-1.275,1.579,1.579,0,0,0-1.169-.425,1.725,1.725,0,0,0-1.2.425,1.626,1.626,0,0,0-.46,1.2v2.373a1.492,1.492,0,0,0,1.664,1.7C82.15,100.953,82.681,100.351,82.681,99.112Z" transform="translate(-62.354 -90.471)" fill="#fff" stroke="#fff" stroke-miterlimit="10" stroke-width="0.473"/>
      <path id="Контур_49" data-name="Контур 49" d="M106.1,96.858v2.2a3.36,3.36,0,0,1-.779,2.3,2.835,2.835,0,0,1-2.3.921,2.961,2.961,0,0,1-2.337-.921,3.36,3.36,0,0,1-.779-2.3v-2.2a3.354,3.354,0,0,1,.814-2.408,3.441,3.441,0,0,1,4.568.035A3.282,3.282,0,0,1,106.1,96.858Zm-1.487,2.373V96.893c0-1.169-.531-1.771-1.558-1.771-1.062,0-1.594.6-1.594,1.771v2.337a1.38,1.38,0,0,0,.46,1.169,1.56,1.56,0,0,0,2.691-1.169Z" transform="translate(-76.563 -90.342)" fill="#fff" stroke="#fff" stroke-miterlimit="10" stroke-width="0.473"/>
      <path id="Контур_50" data-name="Контур 50" d="M121.8,100.01l1.487-.106a1,1,0,0,0,.46.744,1.93,1.93,0,0,0,2.125,0,.917.917,0,0,0,.39-.814.992.992,0,0,0-.425-.814,3.493,3.493,0,0,0-1.027-.531c-.39-.142-.815-.283-1.2-.425a2.244,2.244,0,0,1-1.062-.744,1.975,1.975,0,0,1-.567-1.452,2.151,2.151,0,0,1,.673-1.558,2.829,2.829,0,0,1,2.2-.708,3.055,3.055,0,0,1,.992.142,2.728,2.728,0,0,1,.673.248l.212.106-.46,1.346a2.062,2.062,0,0,0-1.31-.39,1.83,1.83,0,0,0-1.1.248.792.792,0,0,0,.248,1.31,7.871,7.871,0,0,0,1.1.46,12.234,12.234,0,0,1,1.2.5,2.6,2.6,0,0,1,1.027.85,2.5,2.5,0,0,1,.425,1.523,2.264,2.264,0,0,1-.744,1.664,2.985,2.985,0,0,1-2.2.708,3.4,3.4,0,0,1-2.266-.673A1.939,1.939,0,0,1,121.8,100.01Z" transform="translate(-90.707 -90.342)" fill="#fff" stroke="#fff" stroke-miterlimit="10" stroke-width="0.473"/>
      <path id="Контур_51" data-name="Контур 51" d="M144.529,85.214a.7.7,0,0,1-.248.567.754.754,0,0,1-.567.248.7.7,0,0,1-.567-.248.8.8,0,1,1,1.381-.567Zm-.071,10.943h-1.523V87.87h1.523Z" transform="translate(-104.335 -84.4)" fill="#fff" stroke="#fff" stroke-miterlimit="10" stroke-width="0.473"/>
      <path id="Контур_52" data-name="Контур 52" d="M154.566,96.692a2.194,2.194,0,0,1-2.266-2.408V84.9h1.523v3.293h2.2l-.39,1.417h-1.806v4.71c0,.708.39.956,1.169,1.062a1.464,1.464,0,0,0,.85-.106v1.31A2.968,2.968,0,0,1,154.566,96.692Z" transform="translate(-110.406 -84.723)" fill="#fff" stroke="#fff" stroke-miterlimit="10" stroke-width="0.473"/>
      <path id="Контур_53" data-name="Контур 53" d="M165.8,100.01l1.487-.106a1,1,0,0,0,.46.744,1.93,1.93,0,0,0,2.125,0,.917.917,0,0,0,.39-.814.992.992,0,0,0-.425-.814,3.493,3.493,0,0,0-1.027-.531c-.39-.142-.815-.283-1.2-.425a2.429,2.429,0,0,1-1.062-.744,1.975,1.975,0,0,1-.567-1.452,2.15,2.15,0,0,1,.673-1.558,2.829,2.829,0,0,1,2.2-.708,3.055,3.055,0,0,1,.992.142,2.728,2.728,0,0,1,.673.248l.212.106-.46,1.346a2.062,2.062,0,0,0-1.31-.39,1.83,1.83,0,0,0-1.1.248.792.792,0,0,0,.248,1.31,7.869,7.869,0,0,0,1.1.46,12.236,12.236,0,0,1,1.2.5,2.6,2.6,0,0,1,1.027.85,2.5,2.5,0,0,1,.425,1.523,2.264,2.264,0,0,1-.744,1.664,2.985,2.985,0,0,1-2.2.708,3.4,3.4,0,0,1-2.266-.673A2.134,2.134,0,0,1,165.8,100.01Z" transform="translate(-119.126 -90.342)" fill="#fff" stroke="#fff" stroke-miterlimit="10" stroke-width="0.473"/>
    </g>
    <g id="Сгруппировать_135" data-name="Сгруппировать 135" transform="translate(3.895 53.722)">
      <path id="Контур_54" data-name="Контур 54" d="M31.656,156.22H30.7V151.9h.956a1.953,1.953,0,0,1,2.125,2.125A2.024,2.024,0,0,1,31.656,156.22Zm.035-3.825h-.46v3.293h.46a1.489,1.489,0,0,0,1.558-1.7A1.459,1.459,0,0,0,31.692,152.4Z" transform="translate(-30.7 -151.829)" fill="#d4ebf1"/>
      <path id="Контур_55" data-name="Контур 55" d="M41.4,156.22V151.9h1.983l-.177.531H41.9v1.346h1.275v.5H41.9v1.452h1.487v.531H41.4Z" transform="translate(-37.611 -151.829)" fill="#d4ebf1"/>
      <path id="Контур_56" data-name="Контур 56" d="M50.115,154.662h-.283v1.558H49.3V151.9h.85a1.246,1.246,0,0,1,1.346,1.346A1.306,1.306,0,0,1,50.115,154.662Zm0-2.266h-.283v1.771h.319c.567,0,.814-.354.814-.921A.781.781,0,0,0,50.115,152.4Z" transform="translate(-42.713 -151.829)" fill="#d4ebf1"/>
      <path id="Контур_57" data-name="Контур 57" d="M57.367,152.4a1.849,1.849,0,0,1,1.381-.6,1.784,1.784,0,0,1,1.452.673,2.606,2.606,0,0,1-.071,3.152,1.794,1.794,0,0,1-1.381.6A1.842,1.842,0,0,1,57.4,155.7a2.337,2.337,0,0,1-.6-1.664A2.456,2.456,0,0,1,57.367,152.4Zm1.381-.071c-.85,0-1.381.673-1.381,1.7s.531,1.7,1.381,1.7,1.381-.673,1.381-1.7C60.129,153.039,59.633,152.331,58.748,152.331Z" transform="translate(-47.557 -151.765)" fill="#d4ebf1"/>
      <path id="Контур_58" data-name="Контур 58" d="M70.4,156.227a1.674,1.674,0,0,1-1.1-.354l.248-.46a1.434,1.434,0,0,0,.85.319c.354,0,.744-.177.744-.6,0-.708-.956-.85-1.417-1.452a1.167,1.167,0,0,1-.283-.779,1.079,1.079,0,0,1,1.169-1.1,1.692,1.692,0,0,1,.885.212v.567a1.55,1.55,0,0,0-.885-.283c-.354,0-.673.177-.673.531,0,.921,1.7.885,1.7,2.231A1.135,1.135,0,0,1,70.4,156.227Z" transform="translate(-55.631 -151.765)" fill="#d4ebf1"/>
      <path id="Контур_59" data-name="Контур 59" d="M78,156.22V151.9h.531v4.32Z" transform="translate(-61.25 -151.829)" fill="#d4ebf1"/>
      <path id="Контур_60" data-name="Контур 60" d="M83.862,152.331h-1.1v3.825h-.531v-3.825H81.1V151.8H84Z" transform="translate(-63.252 -151.765)" fill="#d4ebf1"/>
      <path id="Контур_61" data-name="Контур 61" d="M95.615,154.662h-.283v1.558H94.8V151.9h.85A1.246,1.246,0,0,1,97,153.246,1.287,1.287,0,0,1,95.615,154.662Zm0-2.266h-.283v1.771h.319c.567,0,.815-.354.815-.921A.781.781,0,0,0,95.615,152.4Z" transform="translate(-72.1 -151.829)" fill="#d4ebf1"/>
      <path id="Контур_62" data-name="Контур 62" d="M105.054,156.22c-.637-1.1-.956-1.771-1.133-1.806h-.39v1.806H103V151.9h.885c.956,0,1.31.531,1.31,1.2a1.247,1.247,0,0,1-.744,1.169h0a14.248,14.248,0,0,1,1.2,1.983h-.6Zm-1.169-3.825h-.354v1.523h.39a.756.756,0,0,0,.744-.779A.7.7,0,0,0,103.885,152.4Z" transform="translate(-77.396 -151.829)" fill="#d4ebf1"/>
      <path id="Контур_63" data-name="Контур 63" d="M111.567,152.4a1.849,1.849,0,0,1,1.381-.6,1.784,1.784,0,0,1,1.452.673,2.606,2.606,0,0,1-.071,3.152,1.794,1.794,0,0,1-1.381.6,1.842,1.842,0,0,1-1.346-.531,2.337,2.337,0,0,1-.6-1.664A2.9,2.9,0,0,1,111.567,152.4Zm1.417-.071c-.85,0-1.381.673-1.381,1.7s.531,1.7,1.381,1.7,1.381-.673,1.381-1.7C114.364,153.039,113.868,152.331,112.983,152.331Z" transform="translate(-82.563 -151.765)" fill="#d4ebf1"/>
      <path id="Контур_64" data-name="Контур 64" d="M125.262,152.331h-1.1v3.825h-.531v-3.825H122.5V151.8h2.9Z" transform="translate(-89.991 -151.765)" fill="#d4ebf1"/>
      <path id="Контур_65" data-name="Контур 65" d="M132.1,156.22V151.9h1.983l-.177.531H132.6v1.346h1.275v.5H132.6v1.452h1.487v.531H132.1Z" transform="translate(-96.191 -151.829)" fill="#d4ebf1"/>
      <path id="Контур_66" data-name="Контур 66" d="M141.212,156.162a1.964,1.964,0,0,1-1.912-2.2,2.1,2.1,0,0,1,2.019-2.266,1.678,1.678,0,0,1,.992.248v.567a1.515,1.515,0,0,0-.992-.319c-.885,0-1.417.744-1.417,1.7,0,.992.531,1.7,1.417,1.7a1.579,1.579,0,0,0,.921-.283l.142.46A1.927,1.927,0,0,1,141.212,156.162Z" transform="translate(-100.841 -151.7)" fill="#d4ebf1"/>
      <path id="Контур_67" data-name="Контур 67" d="M151.562,152.331h-1.1v3.825h-.531v-3.825H148.8V151.8h2.9Z" transform="translate(-106.977 -151.765)" fill="#d4ebf1"/>
      <path id="Контур_68" data-name="Контур 68" d="M158.4,156.22V151.9h.531v4.32Z" transform="translate(-113.177 -151.829)" fill="#d4ebf1"/>
      <path id="Контур_69" data-name="Контур 69" d="M162.467,152.4a1.849,1.849,0,0,1,1.381-.6,1.784,1.784,0,0,1,1.452.673,2.606,2.606,0,0,1-.071,3.152,1.794,1.794,0,0,1-1.381.6,1.842,1.842,0,0,1-1.346-.531,2.337,2.337,0,0,1-.6-1.664A2.456,2.456,0,0,1,162.467,152.4Zm1.381-.071c-.85,0-1.381.673-1.381,1.7s.531,1.7,1.381,1.7,1.381-.673,1.381-1.7C165.264,153.039,164.733,152.331,163.848,152.331Z" transform="translate(-115.438 -151.765)" fill="#d4ebf1"/>
      <path id="Контур_70" data-name="Контур 70" d="M177.833,156.22l-1.912-2.8a3.814,3.814,0,0,1-.39-.637h0v3.435H175V151.9h.531l1.841,2.691a3.574,3.574,0,0,1,.425.708h0v-3.4h.531v4.32Z" transform="translate(-123.899 -151.829)" fill="#d4ebf1"/>
    </g>
  </g>
</svg>
