<svg xmlns="http://www.w3.org/2000/svg" width="163.468" height="62.277" viewBox="0 0 163.468 62.277">
  <g id="Сгруппировать_144" data-name="Сгруппировать 144" transform="translate(0 0)">
    <path id="Контур_93" data-name="Контур 93" d="M163.468,59.422a2.875,2.875,0,0,1-2.728,2.994H2.723A2.876,2.876,0,0,1,0,59.422V3.133A2.876,2.876,0,0,1,2.723.139H160.741a2.875,2.875,0,0,1,2.728,2.994Z" transform="translate(0 -0.139)" fill="#1f355f"/>
    <g id="Сгруппировать_143" data-name="Сгруппировать 143" transform="translate(9.31 8.895)">
      <path id="Контур_94" data-name="Контур 94" d="M174.958,108.455c-1.3,0-1.552,1.848-1.552,3.6s.242,3.593,1.552,3.593c1.331,0,1.552-1.833,1.552-3.6,0-1.745-.271-3.593-1.552-3.593m0,8.969c-2.863,0-4.012-2.375-4.012-5.283s1.148-5.283,4.012-5.283,4.012,2.39,4.012,5.283-1.148,5.278-4.012,5.278m14.578-.143v-5.638a1.034,1.034,0,0,0-1.163-1.089,1.37,1.37,0,0,0-1.015.389v6.338h-2.326v-5.667c0-.641-.449-1.06-1.257-1.06a2.449,2.449,0,0,0-.936.148v6.579h-2.326v-7.589a7.457,7.457,0,0,1,3.253-.6,3.471,3.471,0,0,1,2.548.808,3.942,3.942,0,0,1,2.656-.808c1.907,0,2.893,1.133,2.893,2.553v5.638Zm7.249-6.85a1.651,1.651,0,0,0-.838.177v5.268a1.922,1.922,0,0,0,.719.118c1.178,0,1.686-1.045,1.686-2.848,0-1.567-.33-2.715-1.567-2.715m-.256,6.968a5.733,5.733,0,0,1-2.908-.6V105.533h2.326V109.4a3.2,3.2,0,0,1,1.493-.3c1.892,0,3.2,1.518,3.2,3.893,0,2.819-1.474,4.4-4.115,4.4m8.974.03c-2.267,0-3.371-.848-3.371-2.789v-5.4h2.326V114.8a.985.985,0,0,0,1.1,1.055,2.016,2.016,0,0,0,.971-.2v-6.421h2.326V116.8a7.572,7.572,0,0,1-3.356.626m9.546-6.9a2.145,2.145,0,0,0-.641-.089c-1.281,0-1.774,1.1-1.774,2.76,0,1.745.522,2.745,1.7,2.745a1.552,1.552,0,0,0,.715-.118Zm-.759,6.89c-2.435,0-3.957-1.429-3.957-4.115,0-2.582,1.464-4.159,3.538-4.159a4.976,4.976,0,0,1,1.178.133v-3.716h2.316v11.261a6.4,6.4,0,0,1-3.075.6m6.717.01a4.524,4.524,0,0,1-2.356-.582l.591-1.478a2.433,2.433,0,0,0,1.434.463.9.9,0,0,0,1-.877c0-.542-.281-.838-1.03-1.133-1.478-.586-1.8-1.4-1.8-2.242a2.507,2.507,0,0,1,2.686-2.474,4.167,4.167,0,0,1,2.316.582l-.572,1.331a2.045,2.045,0,0,0-1.222-.419.826.826,0,0,0-.927.838c0,.532.4.833,1.035,1.1,1.548.655,1.9,1.419,1.9,2.356,0,1.4-1.148,2.538-3.055,2.538m13.513-.148v-5.638a1.034,1.034,0,0,0-1.163-1.089,1.37,1.37,0,0,0-1.015.389v6.338h-2.326v-5.667c0-.641-.448-1.06-1.257-1.06a2.449,2.449,0,0,0-.936.148v6.579H225.5v-7.589a7.457,7.457,0,0,1,3.253-.6,3.47,3.47,0,0,1,2.548.808,3.942,3.942,0,0,1,2.656-.808c1.907,0,2.893,1.133,2.893,2.553v5.638Zm8.205-4.238c-1.4.133-2.316.463-2.316,1.745,0,.936.542,1.34,1.469,1.34a1.972,1.972,0,0,0,.848-.163Zm-.971,4.371c-2.326,0-3.519-.867-3.519-2.538,0-2.07,2.07-2.681,4.49-2.908v-.375c0-.838-.567-1.074-1.414-1.074a5.323,5.323,0,0,0-2.09.493l-.508-1.331a7.758,7.758,0,0,1,3.026-.606c1.823,0,3.164.759,3.164,2.937v4.805a7.041,7.041,0,0,1-3.149.591m9.418-.128v-5.623c0-.567-.256-1.119-1.193-1.119a2.736,2.736,0,0,0-.986.163v6.579h-2.326v-7.589a8.426,8.426,0,0,1,3.371-.6c2.548,0,3.46,1.089,3.46,2.553v5.638Zm-76.2-23.606v8.639h-2.435V93.671h-1.789V92.044h6v1.626Zm7.639,8.624V96.662c0-.626-.281-1.133-1.193-1.133a1.985,1.985,0,0,0-.986.227v6.54h-2.326V92.079h2.326v2.4a4.18,4.18,0,0,1,1.73-.37c2.016,0,2.775,1.163,2.775,2.5v5.677Zm7.343-6.8c-.956,0-1.552.818-1.478,2.474l2.809-.414c0-1.429-.483-2.06-1.331-2.06m-1.331,3.612a1.766,1.766,0,0,0,1.942,1.759,4.7,4.7,0,0,0,2.09-.434l.522,1.449a6.278,6.278,0,0,1-2.878.582c-2.464,0-3.883-1.626-3.883-4.194,0-2.523,1.316-4.145,3.627-4.145s3.5,1.577,3.4,4.292Zm13.129-5.83a2,2,0,0,0-.729.118v3.671l.325.015c1.528.074,2.075-.567,2.075-1.912,0-1.281-.444-1.892-1.671-1.892m-.4,5.209-.325-.035v3.864h-2.375V92.5a7.32,7.32,0,0,1,3.12-.6c2.849,0,3.952,1.444,3.952,3.277,0,1.927-1.281,3.583-4.371,3.3m9.645-2.7a2.011,2.011,0,0,0-1.552-.044v6.564h-2.326V94.72a8.72,8.72,0,0,1,4.312-.572Zm4.46-.246c-1.03,0-1.237,1.252-1.237,2.686s.222,2.627,1.237,2.627,1.237-1.183,1.237-2.627-.207-2.686-1.237-2.686m0,6.89c-2.326,0-3.548-1.774-3.548-4.174s1.222-4.164,3.534-4.164c2.341,0,3.563,1.759,3.563,4.164s-1.222,4.174-3.548,4.174m8.072-6.939a1.893,1.893,0,0,0-.715.118v5.327a1.667,1.667,0,0,0,.611.1c1.237,0,1.789-.971,1.789-2.775s-.444-2.775-1.685-2.775m.449,6.924a4.327,4.327,0,0,1-1.163-.138v3.238H220.48V94.72a6.746,6.746,0,0,1,3.075-.6c2.405,0,3.952,1.414,3.952,4.115,0,2.582-1.444,4.179-3.534,4.179m8.265-6.924c-.956,0-1.552.818-1.478,2.474l2.809-.414c0-1.429-.483-2.06-1.331-2.06m-1.331,3.612a1.766,1.766,0,0,0,1.942,1.759,4.7,4.7,0,0,0,2.09-.434l.522,1.449a6.278,6.278,0,0,1-2.878.582c-2.464,0-3.883-1.626-3.883-4.194,0-2.523,1.316-4.145,3.627-4.145s3.5,1.577,3.4,4.292Zm10.177-3.317a2.011,2.011,0,0,0-1.552-.044v6.564h-2.326V94.72a8.72,8.72,0,0,1,4.312-.572Zm4.371,6.653a2.2,2.2,0,0,1-2.415-2.326V95.79h-.882V94.282h.882V92.567l2.326-.591v2.306H246.6V95.79h-1.237v4.15c0,.611.222.936.744.936a1.447,1.447,0,0,0,.493-.089v1.429a2.888,2.888,0,0,1-1.148.227M251.1,105.5h-2.444l1.281-3.2-2.612-8.043h2.464l1.1,4.652a6.152,6.152,0,0,1,.163,1.266h.03a8.865,8.865,0,0,1,.222-1.266l1.227-4.652h2.178Zm-85.628,19.023-3.381-4.968H139.923a2.816,2.816,0,0,1-2.464-4.672l10.729-15.746-7.126-10.467c-1.646-2.415-4.337-2.415-5.978,0L110.64,124.521c-1.641,2.415-.591,4.386,2.326,4.386H163.15c2.922,0,3.962-1.971,2.321-4.386" transform="translate(-109.864 -86.858)" fill="#fff"/>
      <path id="Контур_95" data-name="Контур 95" d="M571.444,237.354a1.394,1.394,0,0,1,1.109.7l12.128,17.815c.3.429.384.818.246,1.064s-.5.394-1.02.394H558.966c-.518,0-.887-.138-1.02-.394s-.044-.636.246-1.064L568.2,241.2l2.139-3.139a1.393,1.393,0,0,1,1.109-.7m14.016,17.988-12.138-17.82a2.316,2.316,0,0,0-1.883-1.109,1.957,1.957,0,0,0-.453.064,2.415,2.415,0,0,0-1.429,1.045l-1.932,2.834-10.211,14.982a1.731,1.731,0,0,0,1.547,2.922h24.942a2.086,2.086,0,0,0,1.681-.665,1.483,1.483,0,0,0,.172-.222,1.958,1.958,0,0,0-.3-2.035" transform="translate(-528.477 -226.894)" fill="#fff"/>
    </g>
  </g>
</svg>
