<svg xmlns="http://www.w3.org/2000/svg" width="181.004" height="137.136" viewBox="0 0 181.004 137.136">
  <path id="Вычитание_1" data-name="Вычитание 1" d="M150.205,136.135h0a14.743,14.743,0,0,1-3.868-.553c-.109.012-.484.052-.95.074-.212,0-.375.007-.534.007-.243,0-.476-.006-.888-.021-.465-.019-1.017-.065-1.551-.109-.633-.052-1.229-.1-1.613-.1a5.112,5.112,0,0,0-1.347.192c.014-.119.146-.711,1.164-1.455a8.381,8.381,0,0,1,3.445-1.16l.139-.022c.608-.088.951-.122.954-.122.29-.105,2.916-1.054,6.491-2.228a5.248,5.248,0,0,0,3.37-4.178c.247-1.37.365-4.921-3.859-8.308-2.349-1.879-7.363-2.792-15.328-2.792h-.141c.019.1.038.2.059.308.043.229.092.487.153.783.038.188.094.429.158.708.48,2.079,1.48,6.405-.091,9.083a9.018,9.018,0,0,1-4.014,3.863,6.073,6.073,0,0,0-1.232-3.71,2.616,2.616,0,0,0-1.941-.782c-3.387,0-3.426,6.049-3.426,6.11-.01-.026-1.059-2.628-2.81-2.628a1.891,1.891,0,0,0-.49.066,1.557,1.557,0,0,0-.544,2.731c.293.159.86.4,1.517.676a23.922,23.922,0,0,1,2.709,1.263,2.217,2.217,0,0,1,1.092,1.829,13.656,13.656,0,0,0-2.669-.271l-.238,0a10.42,10.42,0,0,0-1.8.24,9.034,9.034,0,0,1-1.775.226,4.832,4.832,0,0,1-1.376-.2c-.466-.136-.709-.519-.99-.962a3.172,3.172,0,0,0-3.172-1.71,10.361,10.361,0,0,0-5.044,1.47,19.54,19.54,0,0,1-2.653,1.168,8.353,8.353,0,0,1-2.679.407,12.1,12.1,0,0,1-3.356-.492l-.905.084c-.244.021-.429.033-.649.033s-.473-.012-.835-.033-.709-.057-1.089-.1c-.612-.061-1.245-.124-1.845-.124a4.458,4.458,0,0,0-1.506.22,2.8,2.8,0,0,1,1.145-1.592,8,8,0,0,1,4.006-1.265c.119-.007.245-.011.374-.011.278,0,.483.017.485.017l.075-.042c1.465-.816,3.334-1.848,5.26-2.906a26.875,26.875,0,0,0,2.358-1.488,9.557,9.557,0,0,1,4.886-2.068c3.124-.364,6.1-.932,8.235-3.846a9.562,9.562,0,0,0,1.691-5.571,4.546,4.546,0,0,0-.13-1c-2.631.146-4.714.243-6.323.243-.3,0-.579,0-.834-.01a13.141,13.141,0,0,1-7.827-2.428,16.655,16.655,0,0,1-4.309-5.38c-1.472-2.663-2.211-4-4.009-4a11.449,11.449,0,0,0-3.789.978c-4.361,1.658-7.63,4.565-10.791,7.376-3.264,2.9-6.64,5.9-11.249,7.589a22.38,22.38,0,0,1-7.646,1.486,11.22,11.22,0,0,1-4.926-.927.1.1,0,0,1,.009.021,10.681,10.681,0,0,1,.588,3c.11,2.425-2.461,3.175-2.487,3.183a8.182,8.182,0,0,0-7-3.721c-5.175,0-8.712,6.935-8.747,7.005a20.39,20.39,0,0,0-5.468-1.143c-2.329,0-5.112,1.115-5.569,1.979a1.021,1.021,0,0,0-.162.8c.1.284.433.421.785.566a3.782,3.782,0,0,1,.526.248,3.37,3.37,0,0,1,1.395,2.87,6.822,6.822,0,0,0-2.21-.367q-.088,0-.179,0a11.683,11.683,0,0,0-1.668.174l-.214.032a15.662,15.662,0,0,1-2.342.207l-.234,0a2.244,2.244,0,0,1-1.949-1.016,2.437,2.437,0,0,0-2.112-1.075q-.155,0-.3,0a8.662,8.662,0,0,0-3.845.948,20.9,20.9,0,0,1-3.209,1.143,13.879,13.879,0,0,1-3.438.457,8.2,8.2,0,0,1-3.135-.516l-.874.063s-.31.008-.728.008c-.383,0-.937-.007-1.4-.042-.441-.027-.8-.078-1.115-.124a6.329,6.329,0,0,0-.891-.087,5.907,5.907,0,0,0-1.8.245c0-.171.083-1.04,1.5-2.017a10.562,10.562,0,0,1,5.186-1.314h.312c.492,0,.637.013.652.014a2.73,2.73,0,0,1,.931-.762,12.578,12.578,0,0,1,5.574-1.314c.925-.073,1.973-.156,3.142-.335a12.365,12.365,0,0,0,5.272-2.548,17.777,17.777,0,0,1,3.976-2.289,34.666,34.666,0,0,1,3.74-1.087,26.336,26.336,0,0,0,8.07-3.092c2.438-1.493,3.166-3,2.515-5.2a5.529,5.529,0,0,1-.687,1.744,5.931,5.931,0,0,1-2.653,2.268,7.727,7.727,0,0,1-3.555.843,8.149,8.149,0,0,1-2.822-.488,4.848,4.848,0,0,0,1.212-2.663,2.973,2.973,0,0,0-.836-2.237,2.291,2.291,0,0,0-1.784-.842,5.556,5.556,0,0,0-1.365.231l-.031.008a5.233,5.233,0,0,1-1.276.224,1.689,1.689,0,0,1-.844-.206c-1.871-1.044-5.706-6.4-8.205-11.459-.434-.882-.864-1.793-1.28-2.674A30.443,30.443,0,0,0,17,95.017a3.714,3.714,0,0,0-2.752-1.224c-.1,0-.153,0-.153,0a.255.255,0,0,1-.014.043,16.837,16.837,0,0,1-.68,1.717,7.243,7.243,0,0,1-.63,1.035,6.914,6.914,0,0,1-.443.809,5.245,5.245,0,0,1-2.132,1.818,5.72,5.72,0,0,1-1.885.385,1.21,1.21,0,0,1-.441-.06.277.277,0,0,1-.159-.2.609.609,0,0,1,.173-.5,8.309,8.309,0,0,0,1.065-1.675c.138-.4.276-.776.277-.779.155-.6.214-.887.214-.889.006-.024.558-2.444.16-3.181a6.46,6.46,0,0,0-.487-.7,5.59,5.59,0,0,1-1.185-2.3,7.31,7.31,0,0,1-.087-1.435,4.89,4.89,0,0,0-.926-3.444c-.257-.305-.536-.586-.807-.857a5.856,5.856,0,0,1-1.558-2.129,3.677,3.677,0,0,0-.9-1.411,10.024,10.024,0,0,0-1.4-1.056A7.99,7.99,0,0,0,.9,78.465c-.218-.07-.406-.131-.55-.188C.1,78.184.027,78.05.007,77.953a.338.338,0,0,1,.1-.31c.019-.02.037-.041.055-.062.142-.164.337-.39,1.486-.831A3.5,3.5,0,0,1,2.9,76.52a3.119,3.119,0,0,1,1.116.19,2.2,2.2,0,0,1,.788.355A2.872,2.872,0,0,0,4.72,75.76,5.191,5.191,0,0,0,4.06,74.1a5,5,0,0,1-.445-.79A3.943,3.943,0,0,0,2.5,71.868,11.3,11.3,0,0,0,.735,70.729.237.237,0,0,1,.6,70.483c.013-.076.089-.257.519-.313A8.778,8.778,0,0,1,2.189,70.1a5.836,5.836,0,0,1,2.1.353,4.416,4.416,0,0,1,1.924,1.511c.061.075.121.148.181.219a3.532,3.532,0,0,1,.544.748A6.021,6.021,0,0,1,8.713,75.6c.109.3.22.628.347,1.011a28.552,28.552,0,0,0,2.858,6.383,15.113,15.113,0,0,0,3.737,4.419c.288.244.586.5.908.787a91.331,91.331,0,0,1,6.7,7.2c2.273,2.712,5.343,5.867,8.932,6.2.785.071,1.789.107,2.986.107,2.012,0,3.893-.1,3.972-.107l.947-.068c.018-.462.04-.9.06-1.309.019-.385.037-.74.049-1.061a1.832,1.832,0,0,0-.471-1.383,1.351,1.351,0,0,0-.962-.421c-.641,0-1.313.516-1.369,1.669-1.542-3.254.774-6.312,1.646-7.463a2.93,2.93,0,0,0,.272-.387,1.02,1.02,0,0,0-.4-1.282.85.85,0,0,0-.982.175,1.384,1.384,0,0,0-.3,1.035c-.775-1.45-.515-2.748.865-4.338a19.884,19.884,0,0,1,1.589-1.6c.663-.613,1.1-1.019,1.221-1.555a1.124,1.124,0,0,0-.184-.925.629.629,0,0,0-.493-.253l-.06,0c-.547.042-.819.425-.807,1.138-.669-1.056-.134-2.061,1.731-3.257,1.528-.972,1.836-1.214,1.943-1.812a.9.9,0,0,0-.162-.649.6.6,0,0,0-.4-.265.71.71,0,0,0-.076,0c-.168,0-.566.067-.626.688-.328-1.084.249-1.987,1.813-2.841.164-.088.342-.18.531-.276a9.545,9.545,0,0,0,2.908-2c2.01-2.366,2.553-7.187,2.559-7.236l-.024,0a15.143,15.143,0,0,1-4.094-.587,9.861,9.861,0,0,1-3.611-1.821,4.665,4.665,0,0,1,3.038-1.565,7.817,7.817,0,0,0,4.233-1.928.271.271,0,0,1-.046,0h-.371c-.914,0-2.94-.039-6.24-.3-.314-.026-.622-.039-.916-.039-4.413,0-5.208,2.956-5.216,2.985v.005l-.009-.013a6.1,6.1,0,0,1-.271-6.173c2.031-3.593,7.044-4.141,7.094-4.146.047-.2,1.232-4.82,5.548-6.076a17.79,17.79,0,0,1,9.972.08c-.13-.137-.694-.924.366-3,1.45-2.831-.119-5.98-.186-6.113a.084.084,0,0,1,.024,0h.032c.4,0,3.96.128,6.666,4.577a10.2,10.2,0,0,1,1.392,5.568,5.546,5.546,0,0,0,.089,1.2A11.011,11.011,0,0,0,69.8,52.248c1.3,1.527,2.828,4.975,2.189,7.217a.827.827,0,0,0-.683-.411.7.7,0,0,0-.6.35,1.631,1.631,0,0,0,.15,1.55c2.061,3.93,3.048,6.555,2,8.34a1.373,1.373,0,0,0-1.3-1.19,1.056,1.056,0,0,0-.77.32,1.27,1.27,0,0,0-.321.949,3.769,3.769,0,0,0,.859,1.878,16.148,16.148,0,0,1,1.506,2.66c1.182,2.7.924,3.99.124,5.2A1.431,1.431,0,0,0,71.577,77.5a1.449,1.449,0,0,0-.569.118,2.509,2.509,0,0,0-1.233,1.628,8.537,8.537,0,0,0-.246,2.915,4.769,4.769,0,0,0,2.767,3.9,3.65,3.65,0,0,0,1.078.16c1.217,0,3.07-.57,4.983-3.286.375-.529,3.653-5.514,3.378-17.584a281.386,281.386,0,0,0-3.5-38.118A133.384,133.384,0,0,0,73.205,7.386,39.118,39.118,0,0,0,70.182.159s.01-.005.022-.008A8.265,8.265,0,0,1,71.889,0a15.143,15.143,0,0,1,5.045.945,27.494,27.494,0,0,1,6.546,3.361,16.072,16.072,0,0,1,4.968,5.251c2.085,3.807,2.957,8.749,2.744,15.552a102.82,102.82,0,0,1-2.567,19.732.571.571,0,0,0,.1.5.561.561,0,0,0,.436.2.455.455,0,0,0,.455-.334,99.557,99.557,0,0,0,2.765-14.777,63.863,63.863,0,0,0-.059-17.624c-.676-5.246-1.259-6.683-1.265-6.7a.015.015,0,0,1,.01,0h.009a12.737,12.737,0,0,1,4.84,1.383c2.664,1.381,5.907,3.468,7.355,7.385,2.128,5.763,2,10.716-.46,17.666A116.24,116.24,0,0,1,96.471,46.44c-.154.3-.29.559-.413.8a.673.673,0,0,0-.032.662.44.44,0,0,0,.386.216.852.852,0,0,0,.681-.5A104.6,104.6,0,0,0,104.758,31.1a38.183,38.183,0,0,0,1.9-11.417,21.737,21.737,0,0,0-.366-5.637,9.178,9.178,0,0,1,4.014,2.591c1.884,1.828,6.183,6.743,5.409,12.9-.828,6.576-2.99,10.459-6.443,14.944a45.42,45.42,0,0,1-5.1,5.568c-.413.4-.8.771-1.2,1.16a.516.516,0,0,0-.13.568.447.447,0,0,0,.42.285.761.761,0,0,0,.467-.2,43.816,43.816,0,0,0,12.327-15.757,56.633,56.633,0,0,0,3.136-8.517h0s.009,0,.017.011a9.814,9.814,0,0,1,2.453,3.143l.078.162a14.443,14.443,0,0,1,1.792,7.38,16.3,16.3,0,0,1-4.052,10.256,26.552,26.552,0,0,1-7.172,6.224,30.935,30.935,0,0,1-3.205,1.863,12.207,12.207,0,0,0-1.108.613.582.582,0,0,0-.311.641.569.569,0,0,0,.557.381.774.774,0,0,0,.332-.078c4.216-1.965,10.388-6.029,13.9-11.014a22.342,22.342,0,0,0,3.212-7.24v0l.01.01a6.961,6.961,0,0,1,1.59,3.24c.565,2.2.831,6.828-.391,9.783a15.96,15.96,0,0,1-7.088,8.1,32.09,32.09,0,0,1-7.872,3.02c-.517.14-.962.26-1.285.365-.424.142-.536.433-.5.639a.547.547,0,0,0,.575.427.915.915,0,0,0,.19-.021A41.024,41.024,0,0,0,121.2,61.68a13.654,13.654,0,0,0,5.29-5.162l0,0,.007.012a6.7,6.7,0,0,1,.716,2.629c.21,1.9.095,5.39-1.084,7.214-2.077,3.233-4.32,4.08-8.264,4.665a55.979,55.979,0,0,1-5.813.407c-.924.032-1.721.059-2.361.108a.532.532,0,1,0,.055,1.056,70.308,70.308,0,0,0,9.862-.748c3.661-.572,5.1-1.877,5.111-1.89a5.028,5.028,0,0,1,.078,2.612,5.943,5.943,0,0,1-2.462,4.5,8.454,8.454,0,0,1-5.168,1.323c-.725,0-1.509-.032-2.339-.066-.639-.026-1.295-.053-2-.07-.591-.014-1.113-.022-1.595-.022a37.964,37.964,0,0,0-4.726.279c-.432.052-.571.32-.557.554a.567.567,0,0,0,.566.531l.046,0c1.99-.149,3.23-.176,5.035-.2.1,0,.2,0,.322,0a62.424,62.424,0,0,1,10.407.951,17.058,17.058,0,0,1,5.458,2.021c.323.172.671.357,1.062.558.718.414,1.443.842,2.21,1.3,5.4,3.193,11.52,6.808,18.142,7.165,1.011.053,1.973.081,2.86.081a23.121,23.121,0,0,0,8.84-1.409,10.561,10.561,0,0,0,5.734-5.384c.956-2,2.243-5.914.116-9.6-2.067-3.593-5.484-5.765-10.449-6.64a44.562,44.562,0,0,0-6.388-.529c-.189,0-.365,0-.523.008-5.03.143-7.3.918-8.092,2.765a5.527,5.527,0,0,0,.246,3.979,3.1,3.1,0,0,0-1.5-.448,2.013,2.013,0,0,0-1.284.448c-1.539,1.238-.479,3.186-.468,3.206l0,0-.016,0c-.462-.134-4.524-1.438-4.861-5.749-.374-4.654,4.767-6.769,4.819-6.79h-.012a13.865,13.865,0,0,1-6.658-7.422,15.255,15.255,0,0,1-.519-8.635,20.686,20.686,0,0,1,3.5-7.538q.269-.375.514-.714c1.9-2.623,2.681-3.709,1.257-5.221a3.512,3.512,0,0,0-2.653-1.044,7.292,7.292,0,0,0-2.811.647,4.181,4.181,0,0,1,4.422-3.9l.137,0a6.938,6.938,0,0,1,3.033.768l.353.167a4.518,4.518,0,0,0,1.845.6,1.952,1.952,0,0,0,1.19-.431,1.589,1.589,0,0,0,.668-1.068,2.8,2.8,0,0,0-.538-1.781s.009-.006.02-.009a4.216,4.216,0,0,1,1.186-.173,3.191,3.191,0,0,1,2.943,4.6l.016,0a15.483,15.483,0,0,1,3.388-.288,39.6,39.6,0,0,1,4.923.343c.562.07,1.116.143,1.661.215a45.111,45.111,0,0,0,5.6.52c2.939,0,4.7-.8,5.717-2.6a4.479,4.479,0,0,0,.171-4.578,4.594,4.594,0,0,0-3.927-2.225c-4.485,0-4.777,4.644-4.779,4.691h0s-.008,0-.015-.008a8.622,8.622,0,0,1-2.893-4.188c-.453-1.655-.374-4.661,1.7-6.161a6.452,6.452,0,0,1,3.866-1.354,10.345,10.345,0,0,1,5.319,1.945c.235.146.465.292.69.435a7.419,7.419,0,0,0,3.287,1.508q.064,0,.128,0a2.117,2.117,0,0,0,1.659-.82,3.324,3.324,0,0,0,.313-2.4l.015.007c.548.447,5.336,4.521,4.739,9.816-.727,6.508-7.38,8.693-7.447,8.714.3.453,2.765,4.5.12,7.954a5.314,5.314,0,0,1-4.486,1.983,11.331,11.331,0,0,1-3.806-.726,4.851,4.851,0,0,0,1.545-2.539,3.167,3.167,0,0,0-.629-2.494c-1.88-2.6-3.322-3.728-10.128-4.418a19.126,19.126,0,0,0-1.922-.1,18.04,18.04,0,0,0-9.357,2.49,14.288,14.288,0,0,0-6.47,9.325c-.906,3.891-.395,7.119,1.521,9.594,2.341,3.023,6.86,4.814,12.4,4.913,9.774.176,13.875,1.88,17.654,4.765a12.965,12.965,0,0,1,3.752,4.251,4.108,4.108,0,0,1,4.3-3.694A5.184,5.184,0,0,1,180,74.049a4.618,4.618,0,0,1-1.351,3.333,2.748,2.748,0,0,0-.634-1.514,2.182,2.182,0,0,0-1.7-.692l-.107,0c-2.325.065-2.818,2.778-3.441,6.213-.168.927-.342,1.882-.563,2.866a14.573,14.573,0,0,1-7.069,9.818c-3.308,1.919-7.68,2.933-13,3.014-.2,0-.4,0-.594,0a44.212,44.212,0,0,1-18.1-4.07l.078.163a19.869,19.869,0,0,0,1.517,4.631c1.062,2.146,3.272,6.612,9.126,6.775.209.006.418.009.622.009a22.27,22.27,0,0,0,4.449-.48l.086-.016a20.474,20.474,0,0,1,4.114-.465,27.45,27.45,0,0,1,5.7.707c2.858.617,6.682,2.068,8.676,5.482a8.076,8.076,0,0,1,1.159,3.861,5.017,5.017,0,0,0-4.33-2.484,2.224,2.224,0,0,0-2.266,1.593,3.846,3.846,0,0,0,1.426,4.067,9.218,9.218,0,0,0,2.642,1.187,5.859,5.859,0,0,1,3.786,2.578,8.029,8.029,0,0,1,.8,5.749,1.874,1.874,0,0,0-1.385-.913,1.337,1.337,0,0,0-.539.119c-1.154.522-.565,1.883-.559,1.9a4.313,4.313,0,0,0-1.067-.136,3.127,3.127,0,0,0-.83.1,1.981,1.981,0,0,0-1.466,2.321,1.621,1.621,0,0,0,1.789,1.429,5.708,5.708,0,0,0,2.921-.982.945.945,0,0,1,.553-.145,6,6,0,0,1,2.206.73,2.219,2.219,0,0,1,.6.5,7.047,7.047,0,0,1,3.174,2.321,4.057,4.057,0,0,1,.756,2.015,5.879,5.879,0,0,0-1.651-.218,18.413,18.413,0,0,0-2.674.218,6.338,6.338,0,0,1-.908.08,4.277,4.277,0,0,1-.8-.08,4.021,4.021,0,0,0-.756-.093,3.293,3.293,0,0,0-.363.025l-.049.005c-.13.017-.244.035-.377.056-.21.033-.468.073-.911.13a16.362,16.362,0,0,1-1.8.131,3.371,3.371,0,0,1-1.492-.254,6.933,6.933,0,0,1-1.41-1.135c-.88-.83-1.878-1.771-3.054-1.771q-.083,0-.168.006a9.549,9.549,0,0,0-4.994,1.619,14.42,14.42,0,0,1-2.507,1.274A8.511,8.511,0,0,1,150.205,136.135ZM51.544,49.813a3.343,3.343,0,0,0-1.171.2,4.13,4.13,0,0,0-2.279,2.718,4.6,4.6,0,0,0,2.741,1.225,2.431,2.431,0,0,0,.832-.144,3.481,3.481,0,0,0,2.153-2.044,2.068,2.068,0,0,0,.16-1.242c-.029-.088-.131-.16-.351-.251A5.488,5.488,0,0,0,51.544,49.813Z" transform="translate(0.503 0.5)" fill="#3b456b" stroke="rgba(0,0,0,0)" stroke-miterlimit="10" stroke-width="1"/>
</svg>
