<svg xmlns="http://www.w3.org/2000/svg" width="100.305" height="111.065" viewBox="0 0 100.305 111.065">
  <g id="Сгруппировать_126" data-name="Сгруппировать 126" transform="translate(-199.384 -131.128)">
    <path id="Контур_16" data-name="Контур 16" d="M199.384,131.128v77.654h100.3V131.128Z" transform="translate(0)" fill="#e30613"/>
    <path id="Контур_17" data-name="Контур 17" d="M199.385,375.654v36.318h100.3V375.654Z" transform="translate(-0.001 -169.78)" fill="#151e46"/>
    <path id="Контур_18" data-name="Контур 18" d="M306.547,402.833a4.3,4.3,0,0,1-3.6-1.68l1.339-1.191a3,3,0,0,0,2.369,1.059c1.1,0,1.613-.307,1.613-1.007,0-.595-.315-.859-2.062-1.258-1.712-.4-2.9-.94-2.9-2.767,0-1.681,1.483-2.713,3.311-2.713a4.424,4.424,0,0,1,3.376,1.454l-1.337,1.3a2.835,2.835,0,0,0-2.106-.952c-.994,0-1.325.424-1.325.834,0,.584.4.769,1.868,1.112s3.1.847,3.1,2.86c0,1.758-1.109,2.951-3.64,2.951" transform="translate(-71.905 -182.016)" fill="#fff"/>
    <path id="Контур_19" data-name="Контур 19" d="M333.633,395.575v7.441h-1.855v-7.441H329.12v-1.828h7.173v1.828Z" transform="translate(-90.078 -182.342)" fill="#fff"/>
    <rect id="Прямоугольник_351" data-name="Прямоугольник 351" width="1.854" height="9.269" transform="translate(247.868 211.405)" fill="#fff"/>
    <path id="Контур_20" data-name="Контур 20" d="M375.705,395.548h-2.421v2.383h2.421c.864,0,1.326-.4,1.326-1.207,0-.833-.5-1.177-1.326-1.177m1.1,7.468-1.658-3.336h-1.865v3.336h-1.852v-9.268h4.313a2.877,2.877,0,0,1,3.192,2.94,2.636,2.636,0,0,1-1.774,2.727l1.774,3.6Z" transform="translate(-119.457 -182.342)" fill="#fff"/>
    <path id="Контур_21" data-name="Контур 21" d="M401.491,403.015v-9.268h1.852v7.44h4.648v1.828Z" transform="translate(-140.327 -182.342)" fill="#fff"/>
    <rect id="Прямоугольник_352" data-name="Прямоугольник 352" width="1.851" height="9.269" transform="translate(269.244 211.405)" fill="#fff"/>
    <path id="Контур_22" data-name="Контур 22" d="M447.19,403.015l-3.4-5.058a12.159,12.159,0,0,1-.651-1.044c0,.342.024,1.507.024,2.024v4.078h-1.83v-9.268h1.778l3.284,4.9c.225.345.527.807.648,1.048,0-.349-.026-1.51-.026-2.027v-3.919h1.826v9.268Z" transform="translate(-167.992 -182.342)" fill="#fff"/>
    <path id="Контур_23" data-name="Контур 23" d="M475.287,402.833c-2.421,0-4.053-1.852-4.053-4.779,0-2.819,1.695-4.776,4.12-4.776a3.443,3.443,0,0,1,3.5,2.316l-1.758.726a1.8,1.8,0,0,0-1.774-1.2c-1.389,0-2.184,1.217-2.184,2.936s.809,2.968,2.2,2.968c1.268,0,1.7-.6,1.814-1.405h-1.471v-1.735h3.322V399.1a3.489,3.489,0,0,1-3.719,3.733" transform="translate(-188.751 -182.016)" fill="#fff"/>
    <path id="Контур_24" data-name="Контур 24" d="M306.634,438.588c-.183-.544-.37-1.1-.463-1.443-.09.345-.279.9-.463,1.443l-.6,1.679h2.12Zm1.96,5.508-.728-2.067h-3.39l-.726,2.067h-1.985l3.546-9.269h1.8l3.519,9.269Z" transform="translate(-71.085 -210.865)" fill="#fff"/>
    <path id="Контур_25" data-name="Контур 25" d="M337.352,437.2a1.771,1.771,0,0,0-1.7-1.007c-1.389,0-2.184,1.217-2.184,2.939,0,1.668.806,2.941,2.2,2.941a1.947,1.947,0,0,0,1.813-1.18l1.564.928a3.544,3.544,0,0,1-3.427,2.092c-2.426,0-4.052-1.856-4.052-4.782,0-2.82,1.695-4.779,4.115-4.779a3.494,3.494,0,0,1,3.388,2.053Z" transform="translate(-91.777 -210.535)" fill="#fff"/>
    <path id="Контур_26" data-name="Контур 26" d="M365.871,444.1l-2.516-4.475-1.485,1.747V444.1h-1.851v-9.269h1.851v2.636c0,.343-.013,1.178-.021,1.468a11.592,11.592,0,0,1,.723-.939l2.6-3.164H367.4l-2.71,3.2,3.4,6.066Z" transform="translate(-111.532 -210.865)" fill="#fff"/>
    <path id="Контур_27" data-name="Контур 27" d="M393.311,436.628h-2.42v2.381h2.42c.864,0,1.326-.4,1.326-1.2,0-.833-.5-1.177-1.326-1.177m1.1,7.468-1.655-3.336h-1.867V444.1h-1.852v-9.269h4.316a2.875,2.875,0,0,1,3.19,2.939,2.645,2.645,0,0,1-1.775,2.728l1.775,3.6Z" transform="translate(-131.681 -210.865)" fill="#fff"/>
    <path id="Контур_28" data-name="Контур 28" d="M420.171,436.192c-1.3,0-2.156,1.047-2.156,2.926s.9,2.954,2.2,2.954,2.159-1.049,2.159-2.927-.9-2.953-2.2-2.953m.013,7.721c-2.421,0-4.078-1.777-4.078-4.767s1.681-4.794,4.1-4.794,4.065,1.774,4.065,4.766-1.683,4.795-4.092,4.795" transform="translate(-150.475 -210.535)" fill="#fff"/>
    <path id="Контур_29" data-name="Контур 29" d="M446.591,440.429V444.1h-1.848v-3.629l-3.513-5.639h2.134l1.311,2.2c.329.553.835,1.469,1.008,1.814.169-.345.657-1.231,1-1.814l1.309-2.2H450.1Z" transform="translate(-167.918 -210.866)" fill="#fff"/>
    <path id="Контур_30" data-name="Контур 30" d="M475.781,436.628H474.8v5.665h.915a2.558,2.558,0,0,0,2.831-2.833c0-1.892-.8-2.833-2.765-2.833m-.066,7.468h-2.769v-9.269h2.9c2.643,0,4.606,1.247,4.606,4.634a4.407,4.407,0,0,1-4.74,4.635" transform="translate(-189.94 -210.865)" fill="#fff"/>
    <path id="Контур_31" data-name="Контур 31" d="M301.694,209.9a27.119,27.119,0,0,0-4.6-.4c-.739.011-1.289.021-2.158.087a.232.232,0,1,1-.023-.462,17.627,17.627,0,0,1,2.708-.109c1.836.043,2.973.248,4.074-.506a2.534,2.534,0,0,0,1.056-1.917,1.993,1.993,0,0,0-.034-1.113,4.368,4.368,0,0,1-2.19.806,29.977,29.977,0,0,1-4.222.318.227.227,0,1,1-.027-.45c.816-.062,2.289-.045,3.5-.219,1.677-.248,2.641-.6,3.541-1.988a5.6,5.6,0,0,0,.465-3.074,2.642,2.642,0,0,0-.31-1.125,5.771,5.771,0,0,1-2.267,2.2,17.51,17.51,0,0,1-4.4,1.625c-.345.073-.479-.324-.113-.445a16.686,16.686,0,0,0,3.923-1.442,6.815,6.815,0,0,0,3.036-3.454,7.839,7.839,0,0,0,.168-4.169,2.821,2.821,0,0,0-.686-1.383,9.416,9.416,0,0,1-1.376,3.085,16.249,16.249,0,0,1-5.957,4.693c-.3.142-.559-.2-.248-.4.408-.261.766-.352,1.848-1.055a11.4,11.4,0,0,0,3.073-2.652,6.908,6.908,0,0,0,1.736-4.371,6.273,6.273,0,0,0-.8-3.214,4.14,4.14,0,0,0-1.059-1.344,23.8,23.8,0,0,1-1.344,3.63,18.683,18.683,0,0,1-5.281,6.715c-.294.239-.515-.093-.324-.28a24.275,24.275,0,0,0,2.7-2.867,11.9,11.9,0,0,0,2.76-6.369,6.8,6.8,0,0,0-2.317-5.5,3.8,3.8,0,0,0-1.72-1.1,9.116,9.116,0,0,1,.157,2.4,16.262,16.262,0,0,1-.815,4.866,44.272,44.272,0,0,1-3.283,7.036c-.233.4-.62.175-.444-.16a52.376,52.376,0,0,0,2.891-6.26c1.12-3.15,1.049-5.233.2-7.529a5.956,5.956,0,0,0-3.151-3.148,5.307,5.307,0,0,0-2.081-.588,13.806,13.806,0,0,1,.541,2.854,26.958,26.958,0,0,1,.026,7.511,42.483,42.483,0,0,1-1.184,6.3c-.07.247-.492.16-.423-.157a43.494,43.494,0,0,0,1.1-8.409,12.875,12.875,0,0,0-1.175-6.627,9.269,9.269,0,0,0-4.933-3.67,5.376,5.376,0,0,0-2.893-.335,16.343,16.343,0,0,1,1.3,3.08,56.972,56.972,0,0,1,2.157,8.456,119.01,119.01,0,0,1,1.5,16.244c.108,4.714-1.066,6.958-1.447,7.493-.964,1.361-1.955,1.529-2.6,1.332a2.023,2.023,0,0,1-1.185-1.663,3.632,3.632,0,0,1,.1-1.242,1.082,1.082,0,0,1,.529-.694.6.6,0,0,1,.837.638c.318-.479.476-1.016-.053-2.216-.485-1.095-.994-1.426-1.013-1.934-.022-.69.87-.74,1.022-.034.443-.747.052-1.831-.856-3.554-.381-.728.224-1.031.485-.634a4.08,4.08,0,0,0-.938-3.075,4.774,4.774,0,0,1-1-1.566,5.823,5.823,0,0,0-.634-2.883,3.489,3.489,0,0,0-2.88-1.951,3.121,3.121,0,0,1,.08,2.606c-.5.974-.157,1.277-.157,1.277a7.647,7.647,0,0,0-4.272-.034,3.7,3.7,0,0,0-2.377,2.589,4.308,4.308,0,0,0-3.04,1.767,2.556,2.556,0,0,0,.121,2.634s.366-1.443,2.627-1.255c1.931.154,2.852.128,2.852.128a3.325,3.325,0,0,1-1.814.821,1.943,1.943,0,0,0-1.3.667,4.171,4.171,0,0,0,1.547.776,6.633,6.633,0,0,0,1.764.249,6.93,6.93,0,0,1-1.1,3.083,4.986,4.986,0,0,1-1.473.969c-.682.37-.916.752-.777,1.21.025-.252.182-.3.3-.292a.346.346,0,0,1,.24.39c-.046.255-.185.363-.833.772-.9.574-.99,1-.741,1.388-.006-.372.17-.472.345-.485.222-.022.375.236.316.5-.087.384-.567.619-1.2,1.346-.679.778-.646,1.338-.371,1.849-.022-.516.34-.619.551-.516a.433.433,0,0,1,.171.547c-.074.177-1.6,1.717-.821,3.345.05-1.022,1.229-.888,1.2.057-.011.283-.032.628-.047,1.01l-.406.029a26.491,26.491,0,0,1-2.981,0c-1.606-.147-2.982-1.639-3.827-2.641a38.885,38.885,0,0,0-2.87-3.068,7.438,7.438,0,0,1-1.99-2.218,14.152,14.152,0,0,1-1.374-3.151,2.515,2.515,0,0,0-.758-1.135,1.522,1.522,0,0,0-.233-.318,2.082,2.082,0,0,0-.9-.738,2.944,2.944,0,0,0-1.359-.121c-.272.035-.253.2-.166.239a4.761,4.761,0,0,1,.758.485,1.66,1.66,0,0,1,.476.617,2.069,2.069,0,0,0,.191.337,2.176,2.176,0,0,1,.283.7,1.239,1.239,0,0,1,.036.557.953.953,0,0,0-.338-.151,1.463,1.463,0,0,0-1.013.017c-.556.213-.589.307-.661.381s-.079.2.105.27a6.382,6.382,0,0,1,.811.3,4.244,4.244,0,0,1,.6.45,1.573,1.573,0,0,1,.385.6,4.444,4.444,0,0,0,1.013,1.273c.583.7.313,1.479.434,2.079A3.716,3.716,0,0,0,253.4,215a3.216,3.216,0,0,1-.068,1.356s-.025.116-.092.379c0,0-.058.158-.119.332a3.565,3.565,0,0,1-.457.713c-.1.117-.1.256-.006.3a1.784,1.784,0,0,0,1-.139,2.232,2.232,0,0,0,.913-.775,9.731,9.731,0,0,1,.459-.786c.125-.247.3-.749.3-.749a1.6,1.6,0,0,1,1.245.519,24.681,24.681,0,0,1,1.8,3.444c1.11,2.235,2.751,4.46,3.515,4.883.667.37,1.5-.6,2.271.249.9.985-.161,2.088-.161,2.088a3.52,3.52,0,0,0,2.732-.151,2.529,2.529,0,0,0,1.137-.967,2.318,2.318,0,0,0,.294-.744c.249.838.065,1.521-1.077,2.217-1.9,1.163-3.546,1.217-5.06,1.78s-2.374,1.813-3.962,2.062-2.56.065-3.733.7a1.131,1.131,0,0,0-.4.325s-.077-.008-.4-.005a4.61,4.61,0,0,0-2.23.56c-.671.459-.642.86-.642.86a2.512,2.512,0,0,1,.77-.105c.237,0,.475.067.859.09s.911.015.911.015l.374-.027a4.523,4.523,0,0,0,2.815.025c1.505-.391,1.863-.928,3.152-.889,1.047.025.762.87,1.74.891.833.019,1.46-.194,1.987-.174a2.928,2.928,0,0,1,.947.156,1.427,1.427,0,0,0-.6-1.223c-.3-.179-.767-.181-.492-.688a3.493,3.493,0,0,1,2.386-.843,8.716,8.716,0,0,1,2.342.487s1.505-2.985,3.747-2.985a3.473,3.473,0,0,1,3,1.586,1.439,1.439,0,0,0,1.065-1.357,4.353,4.353,0,0,0-.257-1.286s1.9,1.033,5.387-.238c3.895-1.415,5.653-4.945,9.443-6.377,2.15-.81,2.364-.469,3.341,1.287a5.518,5.518,0,0,0,5.2,3.328c.75.019,1.829-.031,3.066-.1a1.866,1.866,0,0,1,.056.426,4.021,4.021,0,0,1-.724,2.374,4.543,4.543,0,0,1-3.528,1.639c-1.4.156-1.84.826-3.1,1.516-1.455.794-2.286,1.256-2.286,1.256a2.9,2.9,0,0,0-.368,0,3.455,3.455,0,0,0-1.716.539c-.468.381-.49.679-.49.679a1.883,1.883,0,0,1,.645-.094c.413,0,.861.07,1.257.094a3.573,3.573,0,0,0,.636,0l.388-.036a4.678,4.678,0,0,0,2.586.036c1.218-.406,1.9-1.125,3.3-1.125s1.231.979,1.783,1.139c.813.237,1.36-.1,2.121-.115a5.738,5.738,0,0,1,1.246.115.936.936,0,0,0-.468-.779c-.427-.264-1.5-.657-1.811-.827a.662.662,0,0,1,.233-1.163c.885-.237,1.414,1.092,1.414,1.092s0-2.6,1.468-2.6c1.384,0,1.359,1.914,1.359,1.914a3.821,3.821,0,0,0,1.719-1.646c.764-1.3.107-3.5-.028-4.173-.039-.186-.066-.337-.091-.466,2.807,0,5.435.241,6.627,1.19,2.607,2.08,1.831,4.794.209,5.321s-2.781.95-2.781.95-.146.014-.408.052a3.762,3.762,0,0,0-1.535.5c-.488.354-.5.62-.5.62a2.175,2.175,0,0,1,.576-.082c.3,0,.921.072,1.356.09.282.011.378.011.609.006s.407-.032.407-.032a5.307,5.307,0,0,0,2.965.02c1.293-.49,1.442-1.094,3.214-1.233.822-.063,1.434.959,1.984,1.236a3.01,3.01,0,0,0,1.413.052c.31-.04.407-.061.551-.079a1.315,1.315,0,0,1,.5.027,2,2,0,0,0,.734,0,7.95,7.95,0,0,1,1.146-.093,2.5,2.5,0,0,1,.707.093,1.7,1.7,0,0,0-.323-.859,2.982,2.982,0,0,0-1.361-.989.919.919,0,0,0-.257-.211s-.858-.477-1.182-.25c-.518.366-1.859.8-2.018-.191a.848.848,0,0,1,.628-.989,1.723,1.723,0,0,1,.813.013s-.26-.583.239-.808.824.338.824.338a3.376,3.376,0,0,0-.341-2.45c-.7-1.163-1.8-.932-2.753-1.6s-.944-2.412.359-2.412a2.146,2.146,0,0,1,1.855,1.058s.08-3.059-4.214-3.981c-3.58-.765-3.911.176-6.414.1a4.4,4.4,0,0,1-3.909-2.888,8.336,8.336,0,0,1-.65-1.974l-.033-.069a18.91,18.91,0,0,0,8.007,1.732c4.275-.064,7.707-1.537,8.6-5.468.453-2,.456-3.834,1.715-3.869a.986.986,0,0,1,1.047.94,1.943,1.943,0,0,0,.579-1.42,2.222,2.222,0,0,0-2.256-2.135,1.742,1.742,0,0,0-1.844,1.574,5.475,5.475,0,0,0-1.608-1.812c-1.512-1.148-3.193-1.952-7.563-2.031-3.582-.064-6.991-1.8-5.963-6.181,1.011-4.317,4.991-5.258,7.6-4.995,2.853.288,3.5.733,4.338,1.884a1.594,1.594,0,0,1-.392,2.144s2.393.975,3.553-.536a3.045,3.045,0,0,0-.052-3.389,4.765,4.765,0,0,0,3.191-3.714c.272-2.4-2.037-4.186-2.037-4.186s.33,1.284-.845,1.373c-1.2.091-3.207-2.868-5.694-1.078a2.524,2.524,0,0,0-.728,2.625,3.636,3.636,0,0,0,1.246,1.788,2.065,2.065,0,0,1,2.047-2,1.866,1.866,0,0,1,1.609,2.9c-.889,1.57-3.049,1.108-5.562.8a10.217,10.217,0,0,0-3.568-.019,1.352,1.352,0,0,0-.164-1.46,1.516,1.516,0,0,0-1.612-.425s.57.749-.056,1.214c-.823.611-1.4-.5-2.81-.471a1.777,1.777,0,0,0-1.894,1.664s1.487-.721,2.34.169c.664.7.2,1.194-.759,2.529a7.351,7.351,0,0,0-1.276,6.892,5.84,5.84,0,0,0,2.857,3.163s-2.226.887-2.065,2.893a2.862,2.862,0,0,0,2.088,2.45,1.1,1.1,0,0,1,.2-1.366,1.076,1.076,0,0,1,1.193,0,2.332,2.332,0,0,1-.105-1.7c.35-.811,1.4-1.119,3.466-1.177a18.453,18.453,0,0,1,2.961.222,5.965,5.965,0,0,1,4.476,2.83,4.337,4.337,0,0,1-.05,4.091c-1.237,2.573-4.048,3.04-7.469,2.86-3.24-.173-6.245-2.186-8.719-3.605a8.544,8.544,0,0,0-2.794-1.1" transform="translate(-34.65 -30.917)" fill="#fff"/>
    <path id="Контур_32" data-name="Контур 32" d="M319.149,245.93a1.492,1.492,0,0,1-.922.871,1.713,1.713,0,0,1-1.531-.46,1.752,1.752,0,0,1,.977-1.158,1.984,1.984,0,0,1,1.395.111c.1.042.139.072.15.107a.882.882,0,0,1-.069.529" transform="translate(-81.452 -79.131)" fill="#e30613"/>
  </g>
</svg>
