<?xml version="1.0" encoding="UTF-8"?> <svg xmlns="http://www.w3.org/2000/svg" id="Mappin_Griffin" data-name="Mappin Griffin" width="35.105" height="52.475" viewBox="0 0 35.105 52.475"><g id="Сгруппировать_125" data-name="Сгруппировать 125" transform="translate(0 0)"><path id="Mappin" d="M318.168,214.739a17.553,17.553,0,1,0-33.742,6.794l-.013-.032s3.629,9.145,16.2,28.16c12.573-19.015,16.2-28.16,16.2-28.16l-.013.032A17.5,17.5,0,0,0,318.168,214.739Z" transform="translate(-283.063 -197.186)" fill="#3b456b"></path><path id="Right_Panel" data-name="Right Panel" d="M517.553,214.739A17.553,17.553,0,0,0,500,197.186v52.475c12.573-19.015,16.2-28.16,16.2-28.16l-.013.032A17.5,17.5,0,0,0,517.553,214.739Z" transform="translate(-482.447 -197.186)" fill="#151e46"></path><path id="Circle" d="M11.556,0A11.556,11.556,0,1,1,0,11.556,11.556,11.556,0,0,1,11.556,0Z" transform="translate(5.997 5.997)" fill="#fff"></path><path id="Griffin" d="M541.408,741.825a.38.38,0,0,0-.4.344,1.2,1.2,0,0,0-.351-.4,2.455,2.455,0,0,0-1.652-.444c-.782-.014-1.527-.392-1.3-1.35a1.464,1.464,0,0,1,1.66-1.091c.623.063.765.16.948.411a.348.348,0,0,1-.086.468s.523.213.776-.117a.665.665,0,0,0-.011-.74,1.041,1.041,0,0,0,.7-.811,1.151,1.151,0,0,0-.445-.914s.072.28-.184.3-.7-.626-1.243-.235a.551.551,0,0,0-.159.573.8.8,0,0,0,.272.391.451.451,0,0,1,.447-.437.408.408,0,0,1,.352.633c-.194.343-.666.242-1.215.174a2.233,2.233,0,0,0-.779,0,.3.3,0,0,0-.036-.319.331.331,0,0,0-.352-.093s.125.164-.012.265c-.18.134-.305-.109-.614-.1a.388.388,0,0,0-.414.363s.325-.157.511.037c.145.153.044.261-.166.552a1.605,1.605,0,0,0-.279,1.505,1.276,1.276,0,0,0,.624.691s-.486.194-.451.632a.625.625,0,0,0,.456.535.24.24,0,0,1,.044-.3.235.235,0,0,1,.26,0,.509.509,0,0,1-.023-.37c.076-.177.305-.245.757-.257a4.033,4.033,0,0,1,.647.048,1.3,1.3,0,0,1,.977.618.947.947,0,0,1-.011.894c-.27.562-.884.664-1.631.625a4.545,4.545,0,0,1-1.9-.787,1.863,1.863,0,0,0-.61-.24,5.913,5.913,0,0,0-1-.088c-.161,0-.281,0-.471.019a.051.051,0,1,1-.005-.1,3.838,3.838,0,0,1,.591-.024c.4.009.649.054.89-.111a.554.554,0,0,0,.231-.419.437.437,0,0,0-.007-.243.953.953,0,0,1-.478.176,6.525,6.525,0,0,1-.922.07.05.05,0,1,1-.006-.1c.178-.014.5-.01.765-.048a.927.927,0,0,0,.773-.434,1.224,1.224,0,0,0,.1-.671.577.577,0,0,0-.068-.246,1.259,1.259,0,0,1-.5.48,3.818,3.818,0,0,1-.961.355c-.075.016-.1-.071-.025-.1a3.644,3.644,0,0,0,.857-.315,1.488,1.488,0,0,0,.663-.754,1.712,1.712,0,0,0,.037-.91.616.616,0,0,0-.15-.3,2.054,2.054,0,0,1-.3.674,3.547,3.547,0,0,1-1.3,1.025c-.066.031-.122-.043-.054-.088.089-.057.167-.077.4-.23a2.491,2.491,0,0,0,.671-.579,1.508,1.508,0,0,0,.379-.955,1.37,1.37,0,0,0-.175-.7.9.9,0,0,0-.231-.293,5.2,5.2,0,0,1-.294.793,4.081,4.081,0,0,1-1.153,1.466c-.064.052-.112-.02-.071-.061a5.3,5.3,0,0,0,.59-.626,2.6,2.6,0,0,0,.6-1.391,1.486,1.486,0,0,0-.506-1.2.829.829,0,0,0-.376-.241,1.989,1.989,0,0,1,.034.525,3.549,3.549,0,0,1-.178,1.063,9.656,9.656,0,0,1-.717,1.537c-.051.088-.135.038-.1-.035a11.42,11.42,0,0,0,.631-1.367,2.182,2.182,0,0,0,.043-1.644,1.3,1.3,0,0,0-.688-.687,1.158,1.158,0,0,0-.455-.128,3.017,3.017,0,0,1,.118.623,5.882,5.882,0,0,1,.006,1.64,9.259,9.259,0,0,1-.259,1.375c-.015.054-.107.035-.092-.034a9.5,9.5,0,0,0,.24-1.836,2.811,2.811,0,0,0-.257-1.447,2.023,2.023,0,0,0-1.077-.8,1.173,1.173,0,0,0-.632-.073,3.554,3.554,0,0,1,.283.672,12.421,12.421,0,0,1,.471,1.847,25.972,25.972,0,0,1,.327,3.547,2.884,2.884,0,0,1-.316,1.636c-.211.3-.427.334-.567.291a.442.442,0,0,1-.259-.363.793.793,0,0,1,.023-.271.236.236,0,0,1,.115-.151.132.132,0,0,1,.183.139c.069-.1.1-.222-.012-.484-.106-.239-.217-.311-.221-.422,0-.151.19-.162.223-.007.1-.163.011-.4-.187-.776-.083-.159.049-.225.106-.138a.891.891,0,0,0-.2-.672,1.045,1.045,0,0,1-.219-.342,1.271,1.271,0,0,0-.138-.63.762.762,0,0,0-.629-.426.682.682,0,0,1,.018.569c-.109.213-.034.279-.034.279a1.668,1.668,0,0,0-.933-.007.807.807,0,0,0-.519.565.941.941,0,0,0-.664.386.558.558,0,0,0,.026.575s.08-.315.574-.274c.422.034.623.028.623.028a.726.726,0,0,1-.4.179.424.424,0,0,0-.284.146.911.911,0,0,0,.338.169,1.451,1.451,0,0,0,.385.054,1.513,1.513,0,0,1-.24.673,1.09,1.09,0,0,1-.322.212c-.149.081-.2.164-.17.264.005-.055.04-.067.066-.064a.076.076,0,0,1,.052.085c-.01.056-.041.079-.182.169-.2.125-.216.218-.162.3,0-.081.037-.1.075-.106s.082.052.069.109c-.019.084-.124.135-.263.294s-.141.292-.081.4c0-.113.074-.135.12-.113a.1.1,0,0,1,.037.119c-.016.039-.349.375-.179.73.011-.223.268-.194.262.012,0,.062-.007.137-.01.221l-.089.006a5.793,5.793,0,0,1-.651,0,1.432,1.432,0,0,1-.836-.577,8.462,8.462,0,0,0-.627-.67,1.626,1.626,0,0,1-.435-.485,3.092,3.092,0,0,1-.3-.688.55.55,0,0,0-.165-.248.336.336,0,0,0-.051-.07.455.455,0,0,0-.2-.161.643.643,0,0,0-.3-.026c-.059.008-.055.043-.036.052a1.044,1.044,0,0,1,.166.106.361.361,0,0,1,.1.135.457.457,0,0,0,.042.073.479.479,0,0,1,.062.154.271.271,0,0,1,.008.122.211.211,0,0,0-.074-.033.321.321,0,0,0-.221,0c-.121.047-.129.067-.144.083s-.017.044.023.059a1.39,1.39,0,0,1,.177.066.929.929,0,0,1,.131.1.343.343,0,0,1,.084.131.971.971,0,0,0,.221.278c.127.152.068.323.095.454a.812.812,0,0,0,.156.279.7.7,0,0,1-.015.3s-.005.025-.02.083c0,0-.013.034-.026.072a.787.787,0,0,1-.1.156c-.022.026-.022.056,0,.065a.39.39,0,0,0,.218-.03.487.487,0,0,0,.2-.169.645.645,0,0,0,.041-.075.638.638,0,0,0,.059-.1c.027-.054.065-.164.065-.164a.35.35,0,0,1,.272.113,5.391,5.391,0,0,1,.392.752,3.277,3.277,0,0,0,.768,1.066c.146.081.328-.13.5.054.2.215-.035.456-.035.456a.769.769,0,0,0,.6-.033.553.553,0,0,0,.248-.211.509.509,0,0,0,.064-.162c.054.183.014.332-.235.484a4.76,4.76,0,0,1-1.105.389c-.331.123-.519.4-.865.45a2.271,2.271,0,0,0-.815.153.247.247,0,0,0-.087.071s-.017,0-.088,0a1.006,1.006,0,0,0-.487.122c-.146.1-.14.188-.14.188a.549.549,0,0,1,.168-.023c.052,0,.1.015.188.02s.2,0,.2,0l.082-.006a.987.987,0,0,0,.615.006c.329-.085.407-.2.688-.194.229.005.166.19.38.195.182,0,.319-.042.434-.038a.639.639,0,0,1,.207.034.312.312,0,0,0-.131-.267c-.065-.039-.167-.04-.107-.15a.763.763,0,0,1,.521-.184,1.9,1.9,0,0,1,.511.106s.329-.652.818-.652a.758.758,0,0,1,.655.346.314.314,0,0,0,.233-.3.953.953,0,0,0-.056-.281,1.512,1.512,0,0,0,1.177-.052c.851-.309,1.235-1.08,2.062-1.393.47-.177.516-.1.73.281a1.2,1.2,0,0,0,1.135.727c.164,0,.4-.007.67-.022a.413.413,0,0,1,.012.093.88.88,0,0,1-.158.518.992.992,0,0,1-.77.358c-.306.034-.4.18-.678.331-.318.174-.5.274-.5.274a.627.627,0,0,0-.08,0,.756.756,0,0,0-.375.118c-.1.083-.107.148-.107.148a.41.41,0,0,1,.141-.021c.09,0,.188.015.274.021a.8.8,0,0,0,.139,0l.085-.008a1.022,1.022,0,0,0,.565.008c.266-.089.414-.246.72-.246s.269.214.389.249c.178.052.3-.021.463-.025a1.254,1.254,0,0,1,.272.025.2.2,0,0,0-.1-.17c-.093-.058-.327-.144-.4-.181a.145.145,0,0,1,.051-.254c.193-.052.309.239.309.239s0-.569.32-.569c.3,0,.3.418.3.418a.835.835,0,0,0,.375-.359,1.424,1.424,0,0,0-.006-.911c-.009-.041-.014-.073-.02-.1a2.684,2.684,0,0,1,1.447.26c.569.454.4,1.047.046,1.162s-.607.207-.607.207-.032,0-.089.011a.821.821,0,0,0-.335.11c-.107.077-.109.135-.109.135a.473.473,0,0,1,.126-.018c.066,0,.2.016.3.02.061,0,.082,0,.133,0s.089-.007.089-.007a1.16,1.16,0,0,0,.648,0c.282-.107.315-.239.7-.269.179-.014.313.209.433.27a.658.658,0,0,0,.308.011c.068-.009.089-.013.12-.017a.289.289,0,0,1,.109.006.438.438,0,0,0,.16,0,1.723,1.723,0,0,1,.25-.02.543.543,0,0,1,.154.02.371.371,0,0,0-.071-.187.651.651,0,0,0-.3-.216.2.2,0,0,0-.056-.046s-.187-.1-.258-.055c-.113.08-.406.175-.441-.042a.185.185,0,0,1,.137-.216.376.376,0,0,1,.177,0s-.057-.127.052-.177.18.074.18.074a.737.737,0,0,0-.074-.535c-.154-.254-.394-.2-.6-.35s-.206-.527.079-.527a.469.469,0,0,1,.405.231s.018-.668-.92-.869c-.782-.167-.854.038-1.4.023a.961.961,0,0,1-.854-.631,1.819,1.819,0,0,1-.142-.431l-.007-.015a4.13,4.13,0,0,0,1.749.378c.934-.014,1.683-.336,1.877-1.194.1-.438.1-.837.375-.845a.215.215,0,0,1,.229.205.424.424,0,0,0,.126-.31A.485.485,0,0,0,541.408,741.825Zm-11.313-1.607a.326.326,0,0,1-.2.19.374.374,0,0,1-.334-.1.382.382,0,0,1,.213-.253.433.433,0,0,1,.3.024c.022.009.03.016.033.023A.194.194,0,0,1,530.095,740.217Z" transform="translate(-516.089 -724.749)" fill="#151e46"></path></g></svg> 