<?xml version="1.0" encoding="utf-8"?>
<!-- Generator: Adobe Illustrator 16.0.0, SVG Export Plug-In . SVG Version: 6.00 Build 0)  -->
<!DOCTYPE svg PUBLIC "-//W3C//DTD SVG 1.1//EN" "http://www.w3.org/Graphics/SVG/1.1/DTD/svg11.dtd">
<svg version="1.1" id="Layer_1" xmlns="http://www.w3.org/2000/svg" xmlns:xlink="http://www.w3.org/1999/xlink" x="0px" y="0px"
	 width="280px" height="140px" viewBox="0 0 280 140" enable-background="new 0 0 280 140" xml:space="preserve">
<path fill="#8CC63F" d="M38.805,115.37l-1.563-4.562h-8.967l-1.564,4.562h-3.67l8.329-22.72h2.776l8.329,22.72H38.805z
	 M32.838,97.788l-3.542,10.083h6.988L32.838,97.788z"/>
<path fill="#8CC63F" d="M53.197,106.436h-5.169v8.936h-3.446V92.65h8.615c4.436,0,7.276,2.935,7.276,6.894
	C60.474,103.5,57.633,106.436,53.197,106.436 M53.006,95.745h-4.978v7.563h4.978c2.393,0,4.021-1.373,4.021-3.766
	S55.399,95.745,53.006,95.745"/>
<path fill="#8CC63F" d="M72.153,106.436h-5.169v8.936h-3.446V92.65h8.615c4.436,0,7.276,2.935,7.276,6.894
	C79.429,103.5,76.589,106.436,72.153,106.436 M71.962,95.745h-4.978v7.563h4.978c2.393,0,4.021-1.373,4.021-3.766
	S74.355,95.745,71.962,95.745"/>
<path fill="#8CC63F" d="M95.034,115.37l-4.787-9.572H85.94v9.572h-3.447V92.65H91.3c4.308,0,7.053,2.775,7.053,6.637
	c0,3.256-1.979,5.33-4.532,6.031l5.233,10.052H95.034z M91.045,95.745H85.94v7.116h5.105c2.297,0,3.861-1.309,3.861-3.543
	C94.906,97.087,93.342,95.745,91.045,95.745"/>
<path fill="#8CC63F" d="M115.618,113.137c-1.564,1.564-3.574,2.426-6,2.426c-2.426,0-4.403-0.86-5.967-2.426
	c-2.233-2.232-2.202-4.754-2.202-9.125c0-4.373-0.031-6.893,2.202-9.127c1.564-1.564,3.541-2.427,5.967-2.427
	c2.426,0,4.436,0.862,6,2.427c2.233,2.234,2.169,4.754,2.169,9.127C117.787,108.383,117.851,110.902,115.618,113.137 M113,96.959
	c-0.798-0.861-2.043-1.404-3.383-1.404c-1.339,0-2.585,0.543-3.383,1.404c-1.117,1.213-1.339,2.488-1.339,7.053
	c0,4.563,0.222,5.84,1.339,7.051c0.798,0.862,2.044,1.406,3.383,1.406c1.34,0,2.585-0.544,3.383-1.406
	c1.117-1.211,1.34-2.487,1.34-7.051C114.34,99.447,114.118,98.172,113,96.959"/>
<polygon fill="#8CC63F" points="128.797,115.371 126.116,115.371 118.649,92.65 122.223,92.65 127.456,109.182 132.689,92.65 
	136.328,92.65 "/>
<polygon fill="#8CC63F" points="138.338,115.371 138.338,92.65 152.857,92.65 152.857,95.745 141.784,95.745 141.784,102.384 
	151.23,102.384 151.23,105.445 141.784,105.445 141.784,112.275 152.857,112.275 152.857,115.371 "/>
<path fill="#8CC63F" d="M170.312,113.232c-1.436,1.437-3.51,2.139-5.871,2.139h-7.978V92.65h7.978c2.361,0,4.437,0.701,5.871,2.137
	c2.457,2.459,2.297,5.777,2.297,9.064S172.77,110.775,170.312,113.232 M167.953,97.277c-0.957-1.055-2.234-1.532-3.862-1.532h-4.18
	v16.53h4.18c1.628,0,2.905-0.479,3.862-1.531c1.18-1.309,1.211-3.766,1.211-6.893S169.132,98.586,167.953,97.277"/>
<path fill="#8CC63F" d="M188.725,115.562c-2.359,0-4.402-0.861-5.967-2.426c-2.232-2.234-2.201-4.755-2.201-9.127
	c0-4.371-0.031-6.893,2.201-9.126c1.562-1.563,3.605-2.426,5.967-2.426c4.182,0,7.31,2.457,8.105,6.989h-3.51
	c-0.543-2.299-2.074-3.895-4.596-3.895c-1.341,0-2.554,0.51-3.351,1.372c-1.117,1.212-1.373,2.521-1.373,7.084
	s0.256,5.871,1.373,7.084c0.797,0.861,2.01,1.372,3.351,1.372c2.521,0,4.084-1.596,4.629-3.893h3.477
	C196.064,113.105,192.842,115.562,188.725,115.562"/>
<path fill="#8CC63F" d="M213.648,113.137c-1.563,1.564-3.573,2.426-6,2.426c-2.424,0-4.401-0.86-5.967-2.426
	c-2.232-2.232-2.201-4.754-2.201-9.125c0-4.373-0.031-6.893,2.201-9.127c1.564-1.564,3.543-2.427,5.967-2.427
	c2.427,0,4.437,0.862,6,2.427c2.233,2.234,2.17,4.754,2.17,9.127C215.818,108.383,215.882,110.902,213.648,113.137 M211.032,96.959
	c-0.8-0.861-2.042-1.404-3.384-1.404c-1.34,0-2.584,0.543-3.383,1.404c-1.115,1.213-1.338,2.488-1.338,7.053
	c0,4.563,0.223,5.84,1.338,7.051c0.799,0.862,2.043,1.406,3.383,1.406c1.342,0,2.584-0.544,3.384-1.406
	c1.116-1.211,1.341-2.487,1.341-7.051C212.373,99.447,212.148,98.172,211.032,96.959"/>
<path fill="#8CC63F" d="M233.657,113.232c-1.437,1.437-3.511,2.139-5.871,2.139h-7.978V92.65h7.978c2.36,0,4.437,0.701,5.871,2.137
	c2.456,2.459,2.299,5.777,2.299,9.064S236.113,110.775,233.657,113.232 M231.295,97.277c-0.957-1.055-2.232-1.532-3.861-1.532h-4.18
	v16.53h4.18c1.629,0,2.904-0.479,3.861-1.531c1.182-1.309,1.214-3.766,1.214-6.893S232.477,98.586,231.295,97.277"/>
<polygon fill="#8CC63F" points="239.942,115.371 239.942,92.65 254.462,92.65 254.462,95.745 243.39,95.745 243.39,102.384 
	252.834,102.384 252.834,105.445 243.39,105.445 243.39,112.275 254.462,112.275 254.462,115.371 "/>
<g>
	<polygon fill="#9F218B" points="29.318,126.177 29.318,138.875 27.092,138.875 27.092,126.177 23.041,126.177 23.041,124.172 
		33.366,124.172 33.366,126.177 	"/>
	<path fill="#9F218B" d="M43.815,138.875l-3.1-6.192h-2.787v6.192h-2.229v-14.703h5.701c2.792,0,4.562,1.795,4.562,4.295
		c0,2.106-1.277,3.449-2.927,3.901l3.383,6.507H43.815z M41.232,126.177h-3.304v4.603h3.304c1.49,0,2.502-0.847,2.502-2.293
		S42.723,126.177,41.232,126.177"/>
	<path fill="#9F218B" d="M57.47,138.876l-1.017-2.956h-5.8l-1.01,2.956h-2.378l5.391-14.704h1.794l5.392,14.704H57.47z
		 M53.605,127.497l-2.293,6.527h4.52L53.605,127.497z"/>
	<path fill="#9F218B" d="M70.682,137.493c-0.927,0.931-2.267,1.382-3.801,1.382h-5.157v-14.703h5.157
		c1.535,0,2.875,0.457,3.801,1.383c1.59,1.589,1.487,3.74,1.487,5.867C72.169,133.547,72.274,135.903,70.682,137.493
		 M69.159,127.166c-0.627-0.682-1.447-0.989-2.502-0.989h-2.705v10.696h2.705c1.055,0,1.875-0.309,2.502-0.991
		c0.765-0.849,0.781-2.44,0.781-4.463C69.94,129.397,69.923,128.013,69.159,127.166"/>
	<rect x="75.267" y="124.172" fill="#9F218B" width="2.236" height="14.703"/>
	<polygon fill="#9F218B" points="90.163,138.875 83.363,128.526 83.363,138.875 81.136,138.875 81.136,124.172 83.174,124.172 
		89.973,134.503 89.973,124.172 92.198,124.172 92.198,138.875 	"/>
	<path fill="#9F218B" d="M104.634,137.331c-1.114,1.178-2.502,1.669-4.05,1.669c-1.523,0-2.847-0.557-3.857-1.569
		c-1.45-1.446-1.427-3.075-1.427-5.906c0-2.832-0.023-4.463,1.427-5.907c1.01-1.012,2.292-1.571,3.857-1.571
		c3.123,0,4.939,2.046,5.354,4.567h-2.253c-0.374-1.613-1.446-2.562-3.101-2.562c-0.861,0-1.653,0.349-2.168,0.911
		c-0.72,0.783-0.884,1.605-0.884,4.562c0,2.955,0.164,3.804,0.884,4.585c0.515,0.558,1.307,0.889,2.168,0.889
		c0.977,0,1.816-0.371,2.398-1.034c0.539-0.618,0.746-1.363,0.746-2.314v-0.824h-3.144v-1.899h5.375v2.247
		C105.958,135.073,105.609,136.294,104.634,137.331"/>
	<path fill="#9F218B" d="M113.476,139c-2.209,0-3.802-0.515-5.203-1.939l1.482-1.47c1.075,1.076,2.256,1.407,3.758,1.407
		c1.921,0,3.035-0.826,3.035-2.252c0-0.642-0.182-1.176-0.576-1.529c-0.372-0.35-0.743-0.496-1.607-0.615l-1.742-0.253
		c-1.194-0.165-2.144-0.578-2.786-1.175c-0.719-0.684-1.072-1.609-1.072-2.81c0-2.562,1.859-4.318,4.915-4.318
		c1.939,0,3.303,0.497,4.566,1.672l-1.424,1.407c-0.91-0.868-1.966-1.138-3.201-1.138c-1.736,0-2.688,0.991-2.688,2.29
		c0,0.534,0.164,1.016,0.56,1.366c0.371,0.33,0.968,0.576,1.651,0.68l1.672,0.249c1.362,0.205,2.13,0.538,2.745,1.096
		c0.81,0.7,1.204,1.753,1.204,3.016C118.764,137.39,116.548,139,113.476,139"/>
	<polygon fill="#9F218B" points="126.527,126.177 126.527,138.875 124.297,138.875 124.297,126.177 120.247,126.177 
		120.247,124.172 130.578,124.172 130.578,126.177 	"/>
	<path fill="#9F218B" d="M140.111,138.876l-1.012-2.956h-5.802l-1.015,2.956h-2.369l5.392-14.704h1.793l5.39,14.704H140.111z
		 M136.249,127.497l-2.291,6.527h4.526L136.249,127.497z"/>
	<polygon fill="#9F218B" points="153.389,138.875 146.598,128.526 146.598,138.875 144.366,138.875 144.366,124.172 
		146.408,124.172 153.202,134.503 153.202,124.172 155.438,124.172 155.438,138.875 	"/>
	<path fill="#9F218B" d="M168.037,137.493c-0.933,0.931-2.274,1.382-3.804,1.382h-5.163v-14.703h5.163
		c1.528,0,2.871,0.457,3.804,1.383c1.59,1.589,1.481,3.74,1.481,5.867C169.519,133.547,169.627,135.903,168.037,137.493
		 M166.507,127.166c-0.618-0.682-1.447-0.989-2.497-0.989h-2.706v10.696h2.706c1.05,0,1.879-0.309,2.497-0.991
		c0.764-0.849,0.786-2.44,0.786-4.463C167.293,129.397,167.271,128.013,166.507,127.166"/>
	<path fill="#9F218B" d="M180.854,138.876l-1.006-2.956h-5.804l-1.011,2.956h-2.375l5.384-14.704h1.802l5.392,14.704H180.854z
		 M176.998,127.497l-2.296,6.527h4.524L176.998,127.497z"/>
	<path fill="#9F218B" d="M193.231,138.875l-3.101-6.192h-2.788v6.192h-2.226v-14.703h5.699c2.786,0,4.561,1.795,4.561,4.295
		c0,2.106-1.281,3.449-2.932,3.901l3.386,6.507H193.231z M190.648,126.177h-3.306v4.603h3.306c1.488,0,2.495-0.847,2.495-2.293
		C193.143,127.04,192.135,126.177,190.648,126.177"/>
	<path fill="#9F218B" d="M207.4,137.493c-0.932,0.931-2.275,1.382-3.8,1.382h-5.166v-14.703h5.166c1.524,0,2.868,0.457,3.8,1.383
		c1.588,1.589,1.486,3.74,1.486,5.867C208.885,133.547,208.986,135.903,207.4,137.493 M205.871,127.166
		c-0.623-0.682-1.448-0.989-2.505-0.989h-2.702v10.696h2.702c1.055,0,1.883-0.309,2.505-0.991c0.759-0.849,0.783-2.44,0.783-4.463
		C206.654,129.397,206.63,128.013,205.871,127.166"/>
	<path fill="#9F218B" d="M215.888,139c-2.212,0-3.802-0.515-5.205-1.939l1.483-1.47c1.076,1.076,2.256,1.407,3.761,1.407
		c1.923,0,3.039-0.826,3.039-2.252c0-0.642-0.187-1.176-0.58-1.529c-0.369-0.35-0.746-0.496-1.613-0.615l-1.729-0.253
		c-1.203-0.165-2.156-0.578-2.792-1.175c-0.721-0.684-1.076-1.609-1.076-2.81c0-2.562,1.859-4.318,4.914-4.318
		c1.944,0,3.303,0.497,4.562,1.672l-1.424,1.407c-0.907-0.868-1.964-1.138-3.196-1.138c-1.736,0-2.688,0.991-2.688,2.29
		c0,0.534,0.169,1.016,0.559,1.366c0.372,0.33,0.971,0.576,1.651,0.68l1.675,0.249c1.361,0.205,2.126,0.538,2.747,1.096
		c0.803,0.7,1.195,1.753,1.195,3.016C221.171,137.39,218.964,139,215.888,139"/>
	<rect x="223.729" y="136.358" fill="#9F218B" width="2.523" height="2.518"/>
	<path fill="#9F218B" d="M234.306,139c-2.995,0-5.269-2.043-5.269-5.079v-9.749h2.231v9.644c0,1.964,1.199,3.183,3.037,3.183
		c1.839,0,3.055-1.219,3.055-3.183v-9.644h2.228v9.749C239.588,136.957,237.295,139,234.306,139"/>
	<polygon fill="#9F218B" points="251.837,138.875 247.704,131.627 245.229,134.604 245.229,138.875 242.999,138.875 
		242.999,124.172 245.229,124.172 245.229,131.564 251.237,124.172 253.962,124.172 249.192,129.932 254.462,138.875 	"/>
</g>
<path fill="#9F218B" d="M140.001,66.418c51.11,0,98.621,10.209,138.188,27.719L140.001,2.357L1.811,94.137
	C41.377,76.627,88.889,66.418,140.001,66.418"/>
<path fill="#FFFFFF" d="M150.268,19.849c-2.146-4.767-4.781-9.023-7.688-12.63c2.004,2.892,3.837,6.107,5.406,9.597
	c8.156,18.097,6.445,36.454-4,41.161c-8.562,3.856-20.783-2.665-29.404-15.113c8.648,14.464,22.237,22.401,31.561,18.204
	C156.656,56.329,158.423,37.946,150.268,19.849"/>
<path fill="#FFFFFF" d="M126.793,26.28h0.15c-0.121,1.495-0.18,2.961-0.239,4.426c0.417,0,1.793-0.029,3.17-0.09
	c-0.031,0.21-0.031,0.419-0.031,0.629s0,0.419,0.031,0.628c-1.047-0.06-2.452-0.06-3.17-0.06c-0.06,0.299-0.21,4.995-0.21,7.596
	c0,2.243,0.06,4.518,2.422,4.518c0.329,0,0.958-0.091,1.347-0.211v0.719c-0.689,0.239-1.557,0.447-2.303,0.447
	c-2.483,0-3.679-1.404-3.679-3.737c0-2.184,0.179-4.875,0.209-9.331c-0.597,0-1.257,0-2.033,0.06
	c0.028-0.238,0.058-0.449,0.058-0.688c0-0.209-0.03-0.389-0.058-0.598c0.898,0.061,1.554,0.09,1.973,0.09
	c-0.03-0.778-0.059-2.064-0.119-3.35L126.793,26.28z"/>
<path fill="#FFFFFF" d="M132.388,41.712c0.417,0.809,1.704,2.064,3.378,2.064c1.496,0,2.902-0.927,2.902-2.692
	c0-3.708-7.059-1.524-7.059-6.579c0-2.602,1.795-4.517,4.965-4.517c1.465,0,2.392,0.539,3.32,0.838
	c-0.33,0.569-0.658,1.675-0.718,2.123h-0.359c-0.299-0.957-1.285-1.854-2.631-1.854c-1.167,0-2.543,0.748-2.543,2.512
	c0,3.888,7.058,1.495,7.058,6.549c0,2.274-2.063,4.727-5.383,4.727c-1.825,0-3.021-0.509-3.859-0.987
	c0.24-0.508,0.568-1.585,0.568-2.184H132.388L132.388,41.712z"/>
<path fill="#FFFFFF" d="M144.141,23.559c0.838,0,1.526,0.688,1.526,1.525s-0.688,1.525-1.526,1.525
	c-0.836,0-1.524-0.688-1.524-1.525C142.615,24.246,143.303,23.559,144.141,23.559 M143.032,35.88c0-1.795-0.06-3.888-0.238-5.593
	c0.449,0.09,0.897,0.15,1.345,0.15c0.45,0,0.899-0.061,1.348-0.15c-0.18,1.705-0.239,3.798-0.239,5.593v3.111
	c0,1.794,0.06,3.888,0.239,5.593c-0.448-0.09-0.897-0.149-1.348-0.149c-0.447,0-0.896,0.06-1.345,0.149
	c0.179-1.705,0.238-3.799,0.238-5.593V35.88z"/>
<polygon fill="#8CC63F" points="257.811,94.102 257.811,91.055 256.673,91.055 256.673,90.646 259.413,90.646 259.413,91.055 
	258.27,91.055 258.27,94.102 "/>
<path fill="#8CC63F" d="M259.867,94.102v-3.455h0.688l0.818,2.445c0.074,0.229,0.131,0.398,0.164,0.514
	c0.039-0.127,0.102-0.312,0.184-0.556l0.828-2.403h0.614v3.455h-0.438v-2.894l-1.004,2.894h-0.414l-0.998-2.94v2.94H259.867z"/>
</svg>
