<svg id="Layer_1" data-name="Layer 1" xmlns="http://www.w3.org/2000/svg" viewBox="0 0 378.4953 90.9115">
  <title>logo</title>
  <rect x="92.1074" y="45.241" width="4.479" height="39.694" style="fill: #002e6d"/>
  <path d="M119.6676,68.1223c6.575,0,10.885-3.515,10.885-8.733v-.112c0-5.672-4.25-8.621-10.66-8.621h-10.036v17.466Zm-14.29-21.605h14.856c8.961,0,14.858,4.765,14.858,12.589v.113c0,8.563-7.144,12.985-15.594,12.985h-9.641v14.007h-4.479Z" transform="translate(0 -1.276)" style="fill: #002e6d"/>
  <path d="M152.8432,66.4783v-.113c0-10.889,7.993-20.527,19.903-20.527,6.691,0,10.834,1.927,14.811,5.272l-2.898,3.404a16.9047,16.9047,0,0,0-12.083-4.537c-8.791,0-15.085,7.428-15.085,16.274v.114c0,9.468,6.067,16.499,15.709,16.499a18.7256,18.7256,0,0,0,11.459-3.966v-9.867h-12.083v-4.028h16.401v15.822a24.1071,24.1071,0,0,1-15.947,6.067c-12.477,0-20.187-9.073-20.187-20.414" transform="translate(0 -1.276)" style="fill: #002e6d"/>
  <polygon points="196.24 45.241 200.72 45.241 200.72 80.797 223.06 80.797 223.06 84.935 196.24 84.935 196.24 45.241" style="fill: #002e6d"/>
  <path d="M260.3107,66.4783v-.113c0-9.016-6.58-16.388-15.643-16.388-9.072,0-15.537,7.259-15.537,16.274v.114c0,9.015,6.578,16.386,15.649,16.386,9.066,0,15.531-7.259,15.531-16.273m-35.83,0v-.113c0-10.946,8.223-20.527,20.299-20.527,12.071,0,20.183,9.468,20.183,20.413v.114c0,10.943-8.225,20.527-20.295,20.527-12.079,0-20.187-9.47-20.187-20.414" transform="translate(0 -1.276)" style="fill: #002e6d"/>
  <path d="M288.5537,68.1783h-12.532v14.007h13.326c6.01,0,9.753-2.664,9.753-7.089v-.111c0-4.311-3.629-6.807-10.547-6.807m8.338-11.169c0-3.914-3.122-6.465-8.793-6.465h-12.077v13.663H287.76c5.386,0,9.132-2.436,9.132-7.084Zm-25.294-10.492h16.901c4.535,0,8.106,1.304,10.376,3.518a8.8136,8.8136,0,0,1,2.552,6.35v.112c0,5.161-3.177,7.827-6.295,9.185,4.707,1.417,8.506,4.141,8.506,9.585v.113c0,6.805-5.729,10.831-14.405,10.831h-17.635Z" transform="translate(0 -1.276)" style="fill: #002e6d"/>
  <path d="M335.451,71.6393l-9.016-20.187-9.074,20.187Zm-11.059-25.405h4.197l18.09,39.977h-4.82l-4.65-10.491H315.603l-4.705,10.491h-4.592Z" transform="translate(0 -1.276)" style="fill: #002e6d"/>
  <polygon points="351.671 45.241 356.15 45.241 356.15 80.797 378.495 80.797 378.495 84.935 351.671 84.935 351.671 45.241" style="fill: #002e6d"/>
  <polygon points="59.536 71.398 59.536 84.914 29.045 90.911 29.045 75.34 59.536 71.398" style="fill: #d6eff9"/>
  <polygon points="29.045 90.911 0 85.159 0 71.559 29.045 75.341 29.045 90.911" style="fill: #002e6d"/>
  <polygon points="59.536 55.025 59.536 68.541 29.045 72.049 29.045 56.479 59.536 55.025" style="fill: #ace0f3"/>
  <polygon points="29.045 72.049 0 68.684 0 55.085 29.045 56.48 29.045 72.049" style="fill: #002e6d"/>
  <polygon points="59.536 5.997 59.536 19.513 29.045 15.571 29.045 0.001 59.536 5.997" style="fill: #00b2e3"/>
  <polygon points="29.045 15.571 0 19.353 0 5.753 29.045 0 29.045 15.571" style="fill: #002e6d"/>
  <polygon points="59.536 22.346 59.536 35.862 29.045 34.404 29.045 18.835 59.536 22.346" style="fill: #38c2e8"/>
  <polygon points="29.045 34.404 0 35.803 0 22.202 29.045 18.835 29.045 34.404" style="fill: #002e6d"/>
  <polygon points="59.536 38.668 59.536 52.184 29.045 53.207 29.045 37.636 59.536 38.668" style="fill: #7cd1ee"/>
  <polygon points="29.045 53.207 0 52.227 0 38.625 29.045 37.636 29.045 53.207" style="fill: #002e6d"/>
</svg>
